G04 ---------------------------- Layer name :TOP SILK LAYER*
G04 EasyEDA v5.8.20, Tue, 30 Oct 2018 19:36:29 GMT*
G04 21df6059e9d248348c3a5d6df7ddc240*
G04 Gerber Generator version 0.2*
G04 Scale: 100 percent, Rotated: No, Reflected: No *
G04 Dimensions in inches *
G04 leading zeros omitted , absolute positions ,2 integer and 4 decimal *
%FSLAX24Y24*%
%MOIN*%
G90*
G70D02*

%ADD10C,0.010000*%
%ADD21C,0.008000*%
%ADD22C,0.007992*%
%ADD23C,0.007900*%
%ADD24C,0.023622*%
%ADD25C,0.011811*%
%ADD26C,0.005000*%
%ADD27C,0.007000*%
%ADD28C,0.006000*%

%LPD*%
G54D10*
G01X5050Y591D02*
G01X4256Y591D01*
G01X4256Y14528D01*
G01X6343Y14528D01*
G01X6343Y591D01*
G01X5550Y591D01*
G01X16227Y5126D02*
G01X14572Y5126D01*
G01X14572Y5126D02*
G01X14572Y5992D01*
G01X14572Y5992D02*
G01X16227Y5992D01*
G01X16227Y5992D02*
G01X16227Y5126D01*
G01X15000Y5159D02*
G01X15000Y5959D01*
G01X14900Y5159D02*
G01X14900Y5959D01*
G54D21*
G01X600Y2809D02*
G01X600Y2059D01*
G01X1600Y2059D01*
G01X1600Y13059D01*
G01X600Y13059D01*
G01X600Y12059D01*
G54D22*
G01X600Y12059D02*
G01X600Y2809D01*
G54D10*
G01X13300Y609D02*
G01X13300Y1309D01*
G01X12689Y1309D01*
G01X12689Y609D01*
G01X13300Y609D01*
G01X14300Y609D02*
G01X14300Y1309D01*
G01X13689Y1309D01*
G01X13689Y609D01*
G01X14300Y609D01*
G01X12000Y609D02*
G01X12000Y1309D01*
G01X11389Y1309D01*
G01X11389Y609D01*
G01X12000Y609D01*
G01X8700Y609D02*
G01X8700Y1309D01*
G01X8090Y1309D01*
G01X8090Y609D01*
G01X8700Y609D01*
G01X9700Y609D02*
G01X9700Y1309D01*
G01X9090Y1309D01*
G01X9090Y609D01*
G01X9700Y609D01*
G01X11000Y609D02*
G01X11000Y1309D01*
G01X10389Y1309D01*
G01X10389Y609D01*
G01X11000Y609D01*
G54D21*
G01X20650Y11059D02*
G01X21400Y11059D01*
G01X21400Y12059D01*
G01X15400Y12059D01*
G01X15400Y11059D01*
G54D22*
G01X15400Y11059D02*
G01X20650Y11059D01*
G54D23*
G01X19689Y6028D02*
G01X17689Y6028D01*
G01X17689Y5028D01*
G01X19689Y5028D01*
G01X19689Y6028D01*
G54D10*
G01X8415Y9135D02*
G01X8415Y6655D01*
G01X10185Y9135D02*
G01X10185Y6655D01*
G54D23*
G01X13089Y9328D02*
G01X11089Y9328D01*
G01X11089Y8328D01*
G01X13089Y8328D01*
G01X13089Y9328D01*
G01X13089Y7428D02*
G01X11089Y7428D01*
G01X11089Y6428D01*
G01X13089Y6428D01*
G01X13089Y7428D01*
G54D10*
G01X16400Y3159D02*
G01X14400Y3159D01*
G01X14400Y3159D02*
G01X14400Y3459D01*
G01X14400Y3459D02*
G01X14400Y3759D01*
G01X14400Y3759D02*
G01X16400Y3759D01*
G01X16400Y3759D02*
G01X16400Y3459D01*
G01X16400Y3459D02*
G01X16400Y3159D01*
G01X14400Y3459D02*
G01X14300Y3459D01*
G01X16400Y3459D02*
G01X16500Y3459D01*
G01X21260Y5600D02*
G01X21260Y9479D01*
G01X21260Y9479D02*
G01X23030Y9479D01*
G01X23030Y9479D02*
G01X23030Y5600D01*
G01X23030Y5600D02*
G01X21260Y5600D01*
G01X12060Y11819D02*
G01X8180Y11819D01*
G01X8180Y11819D02*
G01X8180Y13590D01*
G01X8180Y13590D02*
G01X12060Y13590D01*
G01X12060Y13590D02*
G01X12060Y11819D01*
G54D26*
G01X5100Y5176D02*
G01X5528Y5013D01*
G01X5100Y5176D02*
G01X5528Y5340D01*
G01X5386Y5073D02*
G01X5386Y5278D01*
G01X5100Y5617D02*
G01X5528Y5617D01*
G01X5100Y5475D02*
G01X5100Y5761D01*
G01X5100Y5896D02*
G01X5528Y5896D01*
G01X5100Y5896D02*
G01X5528Y6059D01*
G01X5100Y6223D02*
G01X5528Y6059D01*
G01X5100Y6223D02*
G01X5528Y6223D01*
G01X5100Y6358D02*
G01X5528Y6358D01*
G01X5100Y6358D02*
G01X5100Y6625D01*
G01X5303Y6358D02*
G01X5303Y6523D01*
G01X5528Y6358D02*
G01X5528Y6625D01*
G01X5201Y7067D02*
G01X5161Y7046D01*
G01X5119Y7004D01*
G01X5100Y6963D01*
G01X5100Y6882D01*
G01X5119Y6842D01*
G01X5161Y6800D01*
G01X5201Y6779D01*
G01X5263Y6759D01*
G01X5365Y6759D01*
G01X5426Y6779D01*
G01X5467Y6800D01*
G01X5509Y6842D01*
G01X5528Y6882D01*
G01X5528Y6963D01*
G01X5509Y7004D01*
G01X5467Y7046D01*
G01X5426Y7067D01*
G01X5365Y7067D01*
G01X5365Y6963D02*
G01X5365Y7067D01*
G01X5100Y7365D02*
G01X5528Y7201D01*
G01X5100Y7365D02*
G01X5528Y7528D01*
G01X5386Y7263D02*
G01X5386Y7467D01*
G01X5100Y7704D02*
G01X5100Y7929D01*
G01X5263Y7806D01*
G01X5263Y7867D01*
G01X5284Y7908D01*
G01X5303Y7929D01*
G01X5365Y7950D01*
G01X5405Y7950D01*
G01X5467Y7929D01*
G01X5509Y7888D01*
G01X5528Y7827D01*
G01X5528Y7765D01*
G01X5509Y7704D01*
G01X5488Y7683D01*
G01X5446Y7663D01*
G01X5201Y8105D02*
G01X5180Y8105D01*
G01X5140Y8125D01*
G01X5119Y8146D01*
G01X5100Y8188D01*
G01X5100Y8269D01*
G01X5119Y8309D01*
G01X5140Y8330D01*
G01X5180Y8350D01*
G01X5221Y8350D01*
G01X5263Y8330D01*
G01X5325Y8290D01*
G01X5528Y8084D01*
G01X5528Y8371D01*
G01X5100Y8608D02*
G01X5119Y8548D01*
G01X5161Y8526D01*
G01X5201Y8526D01*
G01X5242Y8548D01*
G01X5263Y8588D01*
G01X5284Y8669D01*
G01X5303Y8731D01*
G01X5344Y8773D01*
G01X5386Y8792D01*
G01X5446Y8792D01*
G01X5488Y8773D01*
G01X5509Y8751D01*
G01X5528Y8690D01*
G01X5528Y8608D01*
G01X5509Y8548D01*
G01X5488Y8526D01*
G01X5446Y8506D01*
G01X5386Y8506D01*
G01X5344Y8526D01*
G01X5303Y8567D01*
G01X5284Y8628D01*
G01X5263Y8711D01*
G01X5242Y8751D01*
G01X5201Y8773D01*
G01X5161Y8773D01*
G01X5119Y8751D01*
G01X5100Y8690D01*
G01X5100Y8608D01*
G01X5100Y8927D02*
G01X5528Y8927D01*
G01X5100Y8927D02*
G01X5100Y9111D01*
G01X5119Y9173D01*
G01X5140Y9194D01*
G01X5180Y9213D01*
G01X5242Y9213D01*
G01X5284Y9194D01*
G01X5303Y9173D01*
G01X5325Y9111D01*
G01X5325Y8927D01*
G01X5344Y9348D02*
G01X5344Y9717D01*
G01X5100Y9852D02*
G01X5528Y9852D01*
G01X5100Y9852D02*
G01X5100Y10036D01*
G01X5119Y10098D01*
G01X5140Y10117D01*
G01X5180Y10138D01*
G01X5242Y10138D01*
G01X5284Y10117D01*
G01X5303Y10098D01*
G01X5325Y10036D01*
G01X5325Y9852D01*
G01X5100Y10273D02*
G01X5405Y10273D01*
G01X5467Y10294D01*
G01X5509Y10334D01*
G01X5528Y10396D01*
G01X5528Y10438D01*
G01X5509Y10498D01*
G01X5467Y10540D01*
G01X5405Y10559D01*
G01X5100Y10559D01*
G01X14300Y6523D02*
G01X14340Y6544D01*
G01X14402Y6604D01*
G01X14402Y6175D01*
G01X14536Y6604D02*
G01X14536Y6175D01*
G01X14536Y6604D02*
G01X14823Y6175D01*
G01X14823Y6604D02*
G01X14823Y6175D01*
G01X15163Y6604D02*
G01X14959Y6319D01*
G01X15264Y6319D01*
G01X15163Y6604D02*
G01X15163Y6175D01*
G01X15400Y6523D02*
G01X15440Y6544D01*
G01X15502Y6604D01*
G01X15502Y6175D01*
G01X15842Y6604D02*
G01X15638Y6319D01*
G01X15944Y6319D01*
G01X15842Y6604D02*
G01X15842Y6175D01*
G01X16181Y6604D02*
G01X16119Y6584D01*
G01X16100Y6544D01*
G01X16100Y6502D01*
G01X16119Y6461D01*
G01X16160Y6442D01*
G01X16243Y6421D01*
G01X16305Y6400D01*
G01X16344Y6359D01*
G01X16365Y6319D01*
G01X16365Y6257D01*
G01X16344Y6217D01*
G01X16325Y6196D01*
G01X16264Y6175D01*
G01X16181Y6175D01*
G01X16119Y6196D01*
G01X16100Y6217D01*
G01X16080Y6257D01*
G01X16080Y6319D01*
G01X16100Y6359D01*
G01X16140Y6400D01*
G01X16202Y6421D01*
G01X16284Y6442D01*
G01X16325Y6461D01*
G01X16344Y6502D01*
G01X16344Y6544D01*
G01X16325Y6584D01*
G01X16264Y6604D01*
G01X16181Y6604D01*
G01X55Y7059D02*
G01X484Y7059D01*
G01X484Y7059D02*
G01X484Y7304D01*
G01X157Y7746D02*
G01X115Y7726D01*
G01X75Y7686D01*
G01X55Y7644D01*
G01X55Y7563D01*
G01X75Y7521D01*
G01X115Y7480D01*
G01X157Y7461D01*
G01X217Y7440D01*
G01X319Y7440D01*
G01X382Y7461D01*
G01X423Y7480D01*
G01X463Y7521D01*
G01X484Y7563D01*
G01X484Y7644D01*
G01X463Y7686D01*
G01X423Y7726D01*
G01X382Y7746D01*
G01X55Y7881D02*
G01X484Y7881D01*
G01X55Y7881D02*
G01X55Y8025D01*
G01X75Y8086D01*
G01X115Y8127D01*
G01X157Y8148D01*
G01X217Y8169D01*
G01X319Y8169D01*
G01X382Y8148D01*
G01X423Y8127D01*
G01X463Y8086D01*
G01X484Y8025D01*
G01X484Y7881D01*
G01X16600Y12659D02*
G01X16600Y12353D01*
G01X16619Y12292D01*
G01X16660Y12250D01*
G01X16722Y12230D01*
G01X16764Y12230D01*
G01X16825Y12250D01*
G01X16865Y12292D01*
G01X16885Y12353D01*
G01X16885Y12659D01*
G01X17307Y12598D02*
G01X17267Y12640D01*
G01X17205Y12659D01*
G01X17123Y12659D01*
G01X17061Y12640D01*
G01X17021Y12598D01*
G01X17021Y12557D01*
G01X17042Y12517D01*
G01X17061Y12496D01*
G01X17102Y12475D01*
G01X17226Y12434D01*
G01X17267Y12415D01*
G01X17286Y12394D01*
G01X17307Y12353D01*
G01X17307Y12292D01*
G01X17267Y12250D01*
G01X17205Y12230D01*
G01X17123Y12230D01*
G01X17061Y12250D01*
G01X17021Y12292D01*
G01X17443Y12659D02*
G01X17443Y12230D01*
G01X17443Y12659D02*
G01X17627Y12659D01*
G01X17688Y12640D01*
G01X17709Y12619D01*
G01X17728Y12578D01*
G01X17728Y12538D01*
G01X17709Y12496D01*
G01X17688Y12475D01*
G01X17627Y12455D01*
G01X17443Y12455D02*
G01X17627Y12455D01*
G01X17688Y12434D01*
G01X17709Y12415D01*
G01X17728Y12373D01*
G01X17728Y12313D01*
G01X17709Y12271D01*
G01X17688Y12250D01*
G01X17627Y12230D01*
G01X17443Y12230D01*
G01X17864Y12415D02*
G01X18231Y12415D01*
G01X18367Y12659D02*
G01X18367Y12353D01*
G01X18388Y12292D01*
G01X18428Y12250D01*
G01X18489Y12230D01*
G01X18531Y12230D01*
G01X18592Y12250D01*
G01X18632Y12292D01*
G01X18653Y12353D01*
G01X18653Y12659D01*
G01X18952Y12659D02*
G01X18789Y12230D01*
G01X18952Y12659D02*
G01X19115Y12230D01*
G01X18850Y12373D02*
G01X19055Y12373D01*
G01X19251Y12659D02*
G01X19251Y12230D01*
G01X19251Y12659D02*
G01X19435Y12659D01*
G01X19496Y12640D01*
G01X19517Y12619D01*
G01X19536Y12578D01*
G01X19536Y12538D01*
G01X19517Y12496D01*
G01X19496Y12475D01*
G01X19435Y12455D01*
G01X19251Y12455D01*
G01X19393Y12455D02*
G01X19536Y12230D01*
G01X19814Y12659D02*
G01X19814Y12230D01*
G01X19672Y12659D02*
G01X19959Y12659D01*
G54D27*
G01X17806Y6502D02*
G01X17785Y6544D01*
G01X17744Y6584D01*
G01X17705Y6604D01*
G01X17622Y6604D01*
G01X17581Y6584D01*
G01X17540Y6544D01*
G01X17519Y6502D01*
G01X17500Y6442D01*
G01X17500Y6340D01*
G01X17519Y6277D01*
G01X17540Y6236D01*
G01X17581Y6196D01*
G01X17622Y6175D01*
G01X17705Y6175D01*
G01X17744Y6196D01*
G01X17785Y6236D01*
G01X17806Y6277D01*
G01X17942Y6523D02*
G01X17982Y6544D01*
G01X18043Y6604D01*
G01X18043Y6175D01*
G54D26*
G01X18600Y6523D02*
G01X18640Y6544D01*
G01X18702Y6604D01*
G01X18702Y6175D01*
G01X18960Y6604D02*
G01X18898Y6584D01*
G01X18857Y6523D01*
G01X18836Y6421D01*
G01X18836Y6359D01*
G01X18857Y6257D01*
G01X18898Y6196D01*
G01X18960Y6175D01*
G01X19001Y6175D01*
G01X19061Y6196D01*
G01X19102Y6257D01*
G01X19123Y6359D01*
G01X19123Y6421D01*
G01X19102Y6523D01*
G01X19061Y6584D01*
G01X19001Y6604D01*
G01X18960Y6604D01*
G01X19381Y6604D02*
G01X19319Y6584D01*
G01X19278Y6523D01*
G01X19259Y6421D01*
G01X19259Y6359D01*
G01X19278Y6257D01*
G01X19319Y6196D01*
G01X19381Y6175D01*
G01X19422Y6175D01*
G01X19484Y6196D01*
G01X19525Y6257D01*
G01X19544Y6359D01*
G01X19544Y6421D01*
G01X19525Y6523D01*
G01X19484Y6584D01*
G01X19422Y6604D01*
G01X19381Y6604D01*
G01X19680Y6461D02*
G01X19680Y6175D01*
G01X19680Y6379D02*
G01X19740Y6442D01*
G01X19781Y6461D01*
G01X19843Y6461D01*
G01X19885Y6442D01*
G01X19905Y6379D01*
G01X19905Y6175D01*
G01X7836Y6959D02*
G01X7815Y7000D01*
G01X7755Y7061D01*
G01X8184Y7061D01*
G01X7815Y7442D02*
G01X7775Y7421D01*
G01X7755Y7360D01*
G01X7755Y7319D01*
G01X7775Y7258D01*
G01X7836Y7217D01*
G01X7938Y7196D01*
G01X8040Y7196D01*
G01X8123Y7217D01*
G01X8163Y7258D01*
G01X8184Y7319D01*
G01X8184Y7339D01*
G01X8163Y7401D01*
G01X8123Y7442D01*
G01X8061Y7462D01*
G01X8040Y7462D01*
G01X7980Y7442D01*
G01X7938Y7401D01*
G01X7917Y7339D01*
G01X7917Y7319D01*
G01X7938Y7258D01*
G01X7980Y7217D01*
G01X8040Y7196D01*
G01X7755Y7597D02*
G01X8184Y7597D01*
G01X7755Y7597D02*
G01X8184Y7761D01*
G01X7755Y7924D02*
G01X8184Y7761D01*
G01X7755Y7924D02*
G01X8184Y7924D01*
G01X7755Y8059D02*
G01X8184Y8059D01*
G01X7755Y8346D02*
G01X8184Y8346D01*
G01X7959Y8059D02*
G01X7959Y8346D01*
G01X7898Y8706D02*
G01X8184Y8481D01*
G01X7898Y8481D02*
G01X7898Y8706D01*
G01X8184Y8481D02*
G01X8184Y8706D01*
G54D27*
G01X11306Y9802D02*
G01X11285Y9843D01*
G01X11244Y9884D01*
G01X11205Y9904D01*
G01X11122Y9904D01*
G01X11081Y9884D01*
G01X11040Y9843D01*
G01X11019Y9802D01*
G01X11000Y9741D01*
G01X11000Y9639D01*
G01X11019Y9577D01*
G01X11040Y9536D01*
G01X11081Y9495D01*
G01X11122Y9475D01*
G01X11205Y9475D01*
G01X11244Y9495D01*
G01X11285Y9536D01*
G01X11306Y9577D01*
G01X11461Y9802D02*
G01X11461Y9823D01*
G01X11482Y9864D01*
G01X11502Y9884D01*
G01X11543Y9904D01*
G01X11626Y9904D01*
G01X11667Y9884D01*
G01X11686Y9864D01*
G01X11707Y9823D01*
G01X11707Y9782D01*
G01X11686Y9741D01*
G01X11646Y9679D01*
G01X11442Y9475D01*
G01X11727Y9475D01*
G54D26*
G01X12219Y9802D02*
G01X12219Y9823D01*
G01X12240Y9864D01*
G01X12260Y9884D01*
G01X12302Y9904D01*
G01X12384Y9904D01*
G01X12425Y9884D01*
G01X12444Y9864D01*
G01X12465Y9823D01*
G01X12465Y9782D01*
G01X12444Y9741D01*
G01X12405Y9679D01*
G01X12200Y9475D01*
G01X12485Y9475D01*
G01X12743Y9904D02*
G01X12682Y9884D01*
G01X12642Y9823D01*
G01X12621Y9720D01*
G01X12621Y9659D01*
G01X12642Y9557D01*
G01X12682Y9495D01*
G01X12743Y9475D01*
G01X12785Y9475D01*
G01X12846Y9495D01*
G01X12886Y9557D01*
G01X12907Y9659D01*
G01X12907Y9720D01*
G01X12886Y9823D01*
G01X12846Y9884D01*
G01X12785Y9904D01*
G01X12743Y9904D01*
G01X13043Y9761D02*
G01X13043Y9332D01*
G01X13043Y9700D02*
G01X13084Y9741D01*
G01X13125Y9761D01*
G01X13185Y9761D01*
G01X13227Y9741D01*
G01X13268Y9700D01*
G01X13288Y9639D01*
G01X13288Y9598D01*
G01X13268Y9536D01*
G01X13227Y9495D01*
G01X13185Y9475D01*
G01X13125Y9475D01*
G01X13084Y9495D01*
G01X13043Y9536D01*
G54D27*
G01X11306Y7902D02*
G01X11285Y7943D01*
G01X11244Y7984D01*
G01X11205Y8004D01*
G01X11122Y8004D01*
G01X11081Y7984D01*
G01X11040Y7943D01*
G01X11019Y7902D01*
G01X11000Y7841D01*
G01X11000Y7739D01*
G01X11019Y7677D01*
G01X11040Y7636D01*
G01X11081Y7595D01*
G01X11122Y7575D01*
G01X11205Y7575D01*
G01X11244Y7595D01*
G01X11285Y7636D01*
G01X11306Y7677D01*
G01X11482Y8004D02*
G01X11707Y8004D01*
G01X11585Y7841D01*
G01X11646Y7841D01*
G01X11686Y7820D01*
G01X11707Y7800D01*
G01X11727Y7739D01*
G01X11727Y7698D01*
G01X11707Y7636D01*
G01X11667Y7595D01*
G01X11605Y7575D01*
G01X11543Y7575D01*
G01X11482Y7595D01*
G01X11461Y7616D01*
G01X11442Y7657D01*
G54D26*
G01X12219Y7902D02*
G01X12219Y7923D01*
G01X12240Y7964D01*
G01X12260Y7984D01*
G01X12302Y8004D01*
G01X12384Y8004D01*
G01X12425Y7984D01*
G01X12444Y7964D01*
G01X12465Y7923D01*
G01X12465Y7882D01*
G01X12444Y7841D01*
G01X12405Y7779D01*
G01X12200Y7575D01*
G01X12485Y7575D01*
G01X12743Y8004D02*
G01X12682Y7984D01*
G01X12642Y7923D01*
G01X12621Y7820D01*
G01X12621Y7759D01*
G01X12642Y7657D01*
G01X12682Y7595D01*
G01X12743Y7575D01*
G01X12785Y7575D01*
G01X12846Y7595D01*
G01X12886Y7657D01*
G01X12907Y7759D01*
G01X12907Y7820D01*
G01X12886Y7923D01*
G01X12846Y7984D01*
G01X12785Y8004D01*
G01X12743Y8004D01*
G01X13043Y7861D02*
G01X13043Y7432D01*
G01X13043Y7800D02*
G01X13084Y7841D01*
G01X13125Y7861D01*
G01X13185Y7861D01*
G01X13227Y7841D01*
G01X13268Y7800D01*
G01X13288Y7739D01*
G01X13288Y7698D01*
G01X13268Y7636D01*
G01X13227Y7595D01*
G01X13185Y7575D01*
G01X13125Y7575D01*
G01X13084Y7595D01*
G01X13043Y7636D01*
G54D27*
G01X14400Y2904D02*
G01X14400Y2475D01*
G01X14400Y2904D02*
G01X14584Y2904D01*
G01X14644Y2884D01*
G01X14665Y2865D01*
G01X14685Y2823D01*
G01X14685Y2782D01*
G01X14665Y2742D01*
G01X14644Y2721D01*
G01X14584Y2700D01*
G01X14400Y2700D01*
G01X14543Y2700D02*
G01X14685Y2475D01*
G01X14821Y2823D02*
G01X14861Y2844D01*
G01X14923Y2904D01*
G01X14923Y2475D01*
G54D26*
G01X15500Y2823D02*
G01X15540Y2844D01*
G01X15602Y2904D01*
G01X15602Y2475D01*
G01X15860Y2904D02*
G01X15798Y2884D01*
G01X15757Y2823D01*
G01X15736Y2721D01*
G01X15736Y2659D01*
G01X15757Y2557D01*
G01X15798Y2496D01*
G01X15860Y2475D01*
G01X15901Y2475D01*
G01X15961Y2496D01*
G01X16002Y2557D01*
G01X16023Y2659D01*
G01X16023Y2721D01*
G01X16002Y2823D01*
G01X15961Y2884D01*
G01X15901Y2904D01*
G01X15860Y2904D01*
G01X16159Y2904D02*
G01X16159Y2475D01*
G01X16363Y2761D02*
G01X16159Y2557D01*
G01X16239Y2640D02*
G01X16384Y2475D01*
G01X21400Y5404D02*
G01X21564Y4975D01*
G01X21727Y5404D02*
G01X21564Y4975D01*
G01X21861Y5404D02*
G01X21861Y4975D01*
G01X21861Y5404D02*
G01X22127Y5404D01*
G01X21861Y5200D02*
G01X22026Y5200D01*
G01X21861Y4975D02*
G01X22127Y4975D01*
G01X22550Y5344D02*
G01X22509Y5384D01*
G01X22447Y5404D01*
G01X22364Y5404D01*
G01X22303Y5384D01*
G01X22263Y5344D01*
G01X22263Y5302D01*
G01X22284Y5261D01*
G01X22303Y5242D01*
G01X22344Y5221D01*
G01X22468Y5179D01*
G01X22509Y5159D01*
G01X22528Y5140D01*
G01X22550Y5098D01*
G01X22550Y5036D01*
G01X22509Y4996D01*
G01X22447Y4975D01*
G01X22364Y4975D01*
G01X22303Y4996D01*
G01X22263Y5036D01*
G01X22990Y5302D02*
G01X22971Y5344D01*
G01X22930Y5384D01*
G01X22889Y5404D01*
G01X22806Y5404D01*
G01X22765Y5384D01*
G01X22725Y5344D01*
G01X22705Y5302D01*
G01X22685Y5242D01*
G01X22685Y5140D01*
G01X22705Y5077D01*
G01X22725Y5036D01*
G01X22765Y4996D01*
G01X22806Y4975D01*
G01X22889Y4975D01*
G01X22930Y4996D01*
G01X22971Y5036D01*
G01X22990Y5077D01*
G54D28*
G01X22767Y8650D02*
G01X22757Y8667D01*
G01X22731Y8694D01*
G01X22922Y8694D01*
G54D26*
G01X12255Y11759D02*
G01X12684Y11759D01*
G01X12255Y11759D02*
G01X12255Y11902D01*
G01X12275Y11965D01*
G01X12315Y12004D01*
G01X12356Y12025D01*
G01X12418Y12046D01*
G01X12519Y12046D01*
G01X12581Y12025D01*
G01X12622Y12004D01*
G01X12664Y11965D01*
G01X12684Y11902D01*
G01X12684Y11759D01*
G01X12255Y12180D02*
G01X12684Y12180D01*
G01X12255Y12180D02*
G01X12255Y12446D01*
G01X12459Y12180D02*
G01X12459Y12344D01*
G01X12684Y12180D02*
G01X12684Y12446D01*
G01X12255Y12581D02*
G01X12684Y12581D01*
G01X12255Y12581D02*
G01X12255Y12765D01*
G01X12275Y12827D01*
G01X12294Y12848D01*
G01X12335Y12869D01*
G01X12377Y12869D01*
G01X12418Y12848D01*
G01X12439Y12827D01*
G01X12459Y12765D01*
G01X12459Y12581D02*
G01X12459Y12765D01*
G01X12480Y12827D01*
G01X12500Y12848D01*
G01X12540Y12869D01*
G01X12602Y12869D01*
G01X12643Y12848D01*
G01X12664Y12827D01*
G01X12684Y12765D01*
G01X12684Y12581D01*
G01X12255Y13003D02*
G01X12560Y13003D01*
G01X12622Y13023D01*
G01X12664Y13065D01*
G01X12684Y13125D01*
G01X12684Y13167D01*
G01X12664Y13228D01*
G01X12622Y13269D01*
G01X12560Y13290D01*
G01X12255Y13290D01*
G01X12356Y13731D02*
G01X12315Y13711D01*
G01X12275Y13669D01*
G01X12255Y13629D01*
G01X12255Y13548D01*
G01X12275Y13506D01*
G01X12315Y13465D01*
G01X12356Y13444D01*
G01X12418Y13425D01*
G01X12519Y13425D01*
G01X12581Y13444D01*
G01X12622Y13465D01*
G01X12664Y13506D01*
G01X12684Y13548D01*
G01X12684Y13629D01*
G01X12664Y13669D01*
G01X12622Y13711D01*
G01X12581Y13731D01*
G01X12519Y13731D01*
G01X12519Y13629D02*
G01X12519Y13731D01*
G54D28*
G01X9009Y13326D02*
G01X8992Y13317D01*
G01X8965Y13290D01*
G01X8965Y13481D01*
G54D21*
G01X16772Y10132D02*
G01X16735Y10115D01*
G01X16700Y10077D01*
G01X16681Y10042D01*
G01X16681Y9969D01*
G01X16700Y9932D01*
G01X16735Y9896D01*
G01X16772Y9877D01*
G01X16827Y9859D01*
G01X16918Y9859D01*
G01X16972Y9877D01*
G01X17009Y9896D01*
G01X17044Y9932D01*
G01X17064Y9969D01*
G01X17064Y10042D01*
G01X17044Y10077D01*
G01X17009Y10115D01*
G01X16972Y10132D01*
G01X16918Y10132D01*
G01X16918Y10042D02*
G01X16918Y10132D01*
G01X16681Y10252D02*
G01X17064Y10252D01*
G01X16681Y10252D02*
G01X17064Y10506D01*
G01X16681Y10506D02*
G01X17064Y10506D01*
G01X16681Y10626D02*
G01X17064Y10626D01*
G01X16681Y10626D02*
G01X16681Y10754D01*
G01X16700Y10808D01*
G01X16735Y10844D01*
G01X16772Y10863D01*
G01X16827Y10881D01*
G01X16918Y10881D01*
G01X16972Y10863D01*
G01X17009Y10844D01*
G01X17044Y10808D01*
G01X17064Y10754D01*
G01X17064Y10626D01*
G01X17718Y9933D02*
G01X18045Y9933D01*
G01X17881Y9769D02*
G01X17881Y10097D01*
G01X17663Y10435D02*
G01X17663Y10253D01*
G01X17827Y10235D01*
G01X17808Y10253D01*
G01X17790Y10308D01*
G01X17790Y10362D01*
G01X17808Y10417D01*
G01X17845Y10453D01*
G01X17899Y10471D01*
G01X17936Y10471D01*
G01X17990Y10453D01*
G01X18027Y10417D01*
G01X18045Y10362D01*
G01X18045Y10308D01*
G01X18027Y10253D01*
G01X18008Y10235D01*
G01X17972Y10217D01*
G01X17663Y10591D02*
G01X18045Y10737D01*
G01X17663Y10882D02*
G01X18045Y10737D01*
G01X18663Y10004D02*
G01X19045Y10004D01*
G01X18663Y9877D02*
G01X18663Y10132D01*
G01X18663Y10252D02*
G01X19045Y10506D01*
G01X18663Y10506D02*
G01X19045Y10252D01*
G01X18663Y10626D02*
G01X19045Y10626D01*
G01X18663Y10626D02*
G01X18663Y10754D01*
G01X18681Y10808D01*
G01X18718Y10844D01*
G01X18754Y10863D01*
G01X18809Y10881D01*
G01X18900Y10881D01*
G01X18954Y10863D01*
G01X18990Y10844D01*
G01X19027Y10808D01*
G01X19045Y10754D01*
G01X19045Y10626D01*
G01X19663Y9878D02*
G01X20045Y9878D01*
G01X19663Y9878D02*
G01X19663Y10042D01*
G01X19682Y10097D01*
G01X19700Y10115D01*
G01X19736Y10133D01*
G01X19772Y10133D01*
G01X19809Y10115D01*
G01X19827Y10097D01*
G01X19845Y10042D01*
G01X19845Y9878D01*
G01X19845Y10006D02*
G01X20045Y10133D01*
G01X19663Y10253D02*
G01X20045Y10508D01*
G01X19663Y10508D02*
G01X20045Y10253D01*
G01X19663Y10628D02*
G01X20045Y10628D01*
G01X19663Y10628D02*
G01X19663Y10755D01*
G01X19682Y10809D01*
G01X19718Y10846D01*
G01X19754Y10864D01*
G01X19809Y10882D01*
G01X19900Y10882D01*
G01X19954Y10864D01*
G01X19991Y10846D01*
G01X20027Y10809D01*
G01X20045Y10755D01*
G01X20045Y10628D01*
G01X20664Y9878D02*
G01X21045Y9878D01*
G01X20664Y9878D02*
G01X20664Y10005D01*
G01X20682Y10061D01*
G01X20718Y10096D01*
G01X20754Y10115D01*
G01X20809Y10132D01*
G01X20900Y10132D01*
G01X20954Y10115D01*
G01X20991Y10096D01*
G01X21027Y10061D01*
G01X21045Y10005D01*
G01X21045Y9878D01*
G01X20664Y10380D02*
G01X21045Y10380D01*
G01X20664Y10252D02*
G01X20664Y10507D01*
G01X20664Y10627D02*
G01X21045Y10627D01*
G01X20664Y10627D02*
G01X20664Y10792D01*
G01X20682Y10846D01*
G01X20700Y10863D01*
G01X20736Y10881D01*
G01X20773Y10881D01*
G01X20809Y10863D01*
G01X20827Y10846D01*
G01X20845Y10792D01*
G01X20845Y10627D01*
G01X20845Y10754D02*
G01X21045Y10881D01*
G01X15300Y1677D02*
G01X15300Y1296D01*
G01X15300Y1677D02*
G01X15427Y1677D01*
G01X15481Y1659D01*
G01X15518Y1623D01*
G01X15535Y1586D01*
G01X15555Y1532D01*
G01X15555Y1442D01*
G01X15535Y1386D01*
G01X15518Y1350D01*
G01X15481Y1315D01*
G01X15427Y1296D01*
G01X15300Y1296D01*
G01X15819Y1677D02*
G01X15675Y1296D01*
G01X15819Y1677D02*
G01X15964Y1296D01*
G01X15728Y1423D02*
G01X15910Y1423D01*
G01X16085Y1677D02*
G01X16231Y1296D01*
G01X16376Y1677D02*
G01X16231Y1296D01*
G01X16496Y1677D02*
G01X16496Y1296D01*
G01X16496Y1677D02*
G01X16732Y1677D01*
G01X16496Y1496D02*
G01X16642Y1496D01*
G01X16496Y1296D02*
G01X16732Y1296D01*
G01X17071Y1550D02*
G01X17071Y1259D01*
G01X17052Y1204D01*
G01X17035Y1186D01*
G01X16997Y1169D01*
G01X16943Y1169D01*
G01X16906Y1186D01*
G01X17071Y1496D02*
G01X17035Y1532D01*
G01X16997Y1550D01*
G01X16943Y1550D01*
G01X16906Y1532D01*
G01X16871Y1496D01*
G01X16852Y1442D01*
G01X16852Y1404D01*
G01X16871Y1350D01*
G01X16906Y1315D01*
G01X16943Y1296D01*
G01X16997Y1296D01*
G01X17035Y1315D01*
G01X17071Y1350D01*
G01X17409Y1550D02*
G01X17409Y1296D01*
G01X17409Y1496D02*
G01X17372Y1532D01*
G01X17335Y1550D01*
G01X17281Y1550D01*
G01X17244Y1532D01*
G01X17209Y1496D01*
G01X17190Y1442D01*
G01X17190Y1404D01*
G01X17209Y1350D01*
G01X17244Y1315D01*
G01X17281Y1296D01*
G01X17335Y1296D01*
G01X17372Y1315D01*
G01X17409Y1350D01*
G01X17809Y1550D02*
G01X17918Y1296D01*
G01X18027Y1550D02*
G01X17918Y1296D01*
G01X18256Y1677D02*
G01X18202Y1659D01*
G01X18164Y1604D01*
G01X18147Y1515D01*
G01X18147Y1459D01*
G01X18164Y1369D01*
G01X18202Y1315D01*
G01X18256Y1296D01*
G01X18293Y1296D01*
G01X18347Y1315D01*
G01X18384Y1369D01*
G01X18402Y1459D01*
G01X18402Y1515D01*
G01X18384Y1604D01*
G01X18347Y1659D01*
G01X18293Y1677D01*
G01X18256Y1677D01*
G01X18539Y1386D02*
G01X18522Y1369D01*
G01X18539Y1350D01*
G01X18557Y1369D01*
G01X18539Y1386D01*
G01X18714Y1677D02*
G01X18914Y1677D01*
G01X18805Y1532D01*
G01X18860Y1532D01*
G01X18896Y1515D01*
G01X18914Y1496D01*
G01X18932Y1442D01*
G01X18932Y1404D01*
G01X18914Y1350D01*
G01X18877Y1315D01*
G01X18823Y1296D01*
G01X18768Y1296D01*
G01X18714Y1315D01*
G01X18696Y1332D01*
G01X18677Y1369D01*
G01X19332Y1677D02*
G01X19332Y1296D01*
G01X19332Y1496D02*
G01X19368Y1532D01*
G01X19405Y1550D01*
G01X19460Y1550D01*
G01X19496Y1532D01*
G01X19532Y1496D01*
G01X19551Y1442D01*
G01X19551Y1404D01*
G01X19532Y1350D01*
G01X19496Y1315D01*
G01X19460Y1296D01*
G01X19405Y1296D01*
G01X19368Y1315D01*
G01X19332Y1350D01*
G01X19689Y1550D02*
G01X19797Y1296D01*
G01X19906Y1550D02*
G01X19797Y1296D01*
G01X19761Y1223D01*
G01X19725Y1186D01*
G01X19689Y1169D01*
G01X19671Y1169D01*
G01X20380Y1677D02*
G01X20397Y1659D01*
G01X20415Y1677D01*
G01X20397Y1696D01*
G01X20380Y1677D01*
G01X20397Y1550D02*
G01X20397Y1242D01*
G01X20380Y1186D01*
G01X20343Y1169D01*
G01X20306Y1169D01*
G01X20755Y1550D02*
G01X20755Y1296D01*
G01X20755Y1496D02*
G01X20718Y1532D01*
G01X20681Y1550D01*
G01X20627Y1550D01*
G01X20590Y1532D01*
G01X20555Y1496D01*
G01X20535Y1442D01*
G01X20535Y1404D01*
G01X20555Y1350D01*
G01X20590Y1315D01*
G01X20627Y1296D01*
G01X20681Y1296D01*
G01X20718Y1315D01*
G01X20755Y1350D01*
G01X20875Y1550D02*
G01X20875Y1296D01*
G01X20875Y1477D02*
G01X20928Y1532D01*
G01X20964Y1550D01*
G01X21019Y1550D01*
G01X21056Y1532D01*
G01X21075Y1477D01*
G01X21075Y1296D01*
G01X21194Y1550D02*
G01X21194Y1169D01*
G01X21194Y1496D02*
G01X21231Y1532D01*
G01X21267Y1550D01*
G01X21322Y1550D01*
G01X21357Y1532D01*
G01X21394Y1496D01*
G01X21413Y1442D01*
G01X21413Y1404D01*
G01X21394Y1350D01*
G01X21357Y1315D01*
G01X21322Y1296D01*
G01X21267Y1296D01*
G01X21231Y1315D01*
G01X21194Y1350D01*
G01X21623Y1550D02*
G01X21586Y1532D01*
G01X21551Y1496D01*
G01X21532Y1442D01*
G01X21532Y1404D01*
G01X21551Y1350D01*
G01X21586Y1315D01*
G01X21623Y1296D01*
G01X21677Y1296D01*
G01X21714Y1315D01*
G01X21751Y1350D01*
G01X21768Y1404D01*
G01X21768Y1442D01*
G01X21751Y1496D01*
G01X21714Y1532D01*
G01X21677Y1550D01*
G01X21623Y1550D01*
G01X21889Y1550D02*
G01X21889Y1296D01*
G01X21889Y1477D02*
G01X21943Y1532D01*
G01X21980Y1550D01*
G01X22035Y1550D01*
G01X22071Y1532D01*
G01X22089Y1477D01*
G01X22089Y1296D01*
G01X22089Y1477D02*
G01X22143Y1532D01*
G01X22180Y1550D01*
G01X22235Y1550D01*
G01X22271Y1532D01*
G01X22289Y1477D01*
G01X22289Y1296D01*
G01X15372Y940D02*
G01X15390Y923D01*
G01X15409Y940D01*
G01X15390Y959D01*
G01X15372Y940D01*
G01X15390Y813D02*
G01X15390Y504D01*
G01X15372Y450D01*
G01X15335Y431D01*
G01X15300Y431D01*
G01X15747Y813D02*
G01X15747Y559D01*
G01X15747Y759D02*
G01X15710Y796D01*
G01X15675Y813D01*
G01X15619Y813D01*
G01X15584Y796D01*
G01X15547Y759D01*
G01X15528Y704D01*
G01X15528Y669D01*
G01X15547Y613D01*
G01X15584Y577D01*
G01X15619Y559D01*
G01X15675Y559D01*
G01X15710Y577D01*
G01X15747Y613D01*
G01X15867Y813D02*
G01X15867Y559D01*
G01X15867Y740D02*
G01X15922Y796D01*
G01X15957Y813D01*
G01X16013Y813D01*
G01X16048Y796D01*
G01X16067Y740D01*
G01X16067Y559D01*
G01X16206Y650D02*
G01X16186Y631D01*
G01X16206Y613D01*
G01X16223Y631D01*
G01X16206Y650D01*
G01X16343Y813D02*
G01X16343Y431D01*
G01X16343Y759D02*
G01X16380Y796D01*
G01X16415Y813D01*
G01X16471Y813D01*
G01X16506Y796D01*
G01X16543Y759D01*
G01X16561Y704D01*
G01X16561Y669D01*
G01X16543Y613D01*
G01X16506Y577D01*
G01X16471Y559D01*
G01X16415Y559D01*
G01X16380Y577D01*
G01X16343Y613D01*
G01X16772Y813D02*
G01X16735Y796D01*
G01X16700Y759D01*
G01X16681Y704D01*
G01X16681Y669D01*
G01X16700Y613D01*
G01X16735Y577D01*
G01X16772Y559D01*
G01X16827Y559D01*
G01X16864Y577D01*
G01X16900Y613D01*
G01X16918Y669D01*
G01X16918Y704D01*
G01X16900Y759D01*
G01X16864Y796D01*
G01X16827Y813D01*
G01X16772Y813D01*
G01X17038Y813D02*
G01X17038Y559D01*
G01X17038Y740D02*
G01X17093Y796D01*
G01X17128Y813D01*
G01X17184Y813D01*
G01X17219Y796D01*
G01X17238Y740D01*
G01X17238Y559D01*
G01X17238Y740D02*
G01X17293Y796D01*
G01X17328Y813D01*
G01X17384Y813D01*
G01X17419Y796D01*
G01X17438Y740D01*
G01X17438Y559D01*
G01X17557Y940D02*
G01X17576Y923D01*
G01X17594Y940D01*
G01X17576Y959D01*
G01X17557Y940D01*
G01X17576Y813D02*
G01X17576Y559D01*
G01X17714Y940D02*
G01X17714Y559D01*
G01X17896Y813D02*
G01X17714Y631D01*
G01X17786Y704D02*
G01X17914Y559D01*
G01X18252Y813D02*
G01X18252Y559D01*
G01X18252Y759D02*
G01X18215Y796D01*
G01X18180Y813D01*
G01X18126Y813D01*
G01X18089Y796D01*
G01X18052Y759D01*
G01X18035Y704D01*
G01X18035Y669D01*
G01X18052Y613D01*
G01X18089Y577D01*
G01X18126Y559D01*
G01X18180Y559D01*
G01X18215Y577D01*
G01X18252Y613D01*
G01X18372Y940D02*
G01X18372Y559D01*
G01X18493Y704D02*
G01X18710Y704D01*
G01X18710Y740D01*
G01X18693Y777D01*
G01X18675Y796D01*
G01X18638Y813D01*
G01X18584Y813D01*
G01X18547Y796D01*
G01X18510Y759D01*
G01X18493Y704D01*
G01X18493Y669D01*
G01X18510Y613D01*
G01X18547Y577D01*
G01X18584Y559D01*
G01X18638Y559D01*
G01X18675Y577D01*
G01X18710Y613D01*
G01X18831Y940D02*
G01X18831Y559D01*
G01X19013Y813D02*
G01X18831Y631D01*
G01X18903Y704D02*
G01X19031Y559D01*
G01X19423Y796D02*
G01X19406Y831D01*
G01X19368Y850D01*
G01X19314Y850D01*
G01X19277Y831D01*
G01X19260Y813D01*
G01X19242Y759D01*
G01X19242Y704D01*
G01X19260Y669D01*
G01X19296Y650D01*
G01X19351Y650D01*
G01X19386Y669D01*
G01X19406Y704D01*
G01X19314Y850D02*
G01X19277Y813D01*
G01X19260Y759D01*
G01X19260Y704D01*
G01X19277Y669D01*
G01X19296Y650D01*
G01X19423Y850D02*
G01X19406Y704D01*
G01X19406Y669D01*
G01X19442Y650D01*
G01X19477Y650D01*
G01X19514Y686D01*
G01X19532Y740D01*
G01X19532Y777D01*
G01X19514Y831D01*
G01X19496Y869D01*
G01X19460Y904D01*
G01X19423Y923D01*
G01X19368Y940D01*
G01X19314Y940D01*
G01X19260Y923D01*
G01X19223Y904D01*
G01X19186Y869D01*
G01X19168Y831D01*
G01X19151Y777D01*
G01X19151Y723D01*
G01X19168Y669D01*
G01X19186Y631D01*
G01X19223Y596D01*
G01X19260Y577D01*
G01X19314Y559D01*
G01X19368Y559D01*
G01X19423Y577D01*
G01X19460Y596D01*
G01X19477Y613D01*
G01X19442Y850D02*
G01X19423Y704D01*
G01X19423Y669D01*
G01X19442Y650D01*
G01X19871Y813D02*
G01X19871Y523D01*
G01X19852Y469D01*
G01X19835Y450D01*
G01X19797Y431D01*
G01X19743Y431D01*
G01X19706Y450D01*
G01X19871Y759D02*
G01X19835Y796D01*
G01X19797Y813D01*
G01X19743Y813D01*
G01X19706Y796D01*
G01X19671Y759D01*
G01X19652Y704D01*
G01X19652Y669D01*
G01X19671Y613D01*
G01X19706Y577D01*
G01X19743Y559D01*
G01X19797Y559D01*
G01X19835Y577D01*
G01X19871Y613D01*
G01X19990Y813D02*
G01X19990Y559D01*
G01X19990Y740D02*
G01X20046Y796D01*
G01X20081Y813D01*
G01X20135Y813D01*
G01X20172Y796D01*
G01X20190Y740D01*
G01X20190Y559D01*
G01X20190Y740D02*
G01X20246Y796D01*
G01X20281Y813D01*
G01X20335Y813D01*
G01X20372Y796D01*
G01X20390Y740D01*
G01X20390Y559D01*
G01X20728Y813D02*
G01X20728Y559D01*
G01X20728Y759D02*
G01X20693Y796D01*
G01X20656Y813D01*
G01X20602Y813D01*
G01X20565Y796D01*
G01X20528Y759D01*
G01X20510Y704D01*
G01X20510Y669D01*
G01X20528Y613D01*
G01X20565Y577D01*
G01X20602Y559D01*
G01X20656Y559D01*
G01X20693Y577D01*
G01X20728Y613D01*
G01X20848Y940D02*
G01X20867Y923D01*
G01X20885Y940D01*
G01X20867Y959D01*
G01X20848Y940D01*
G01X20867Y813D02*
G01X20867Y559D01*
G01X21006Y940D02*
G01X21006Y559D01*
G01X21143Y650D02*
G01X21126Y631D01*
G01X21143Y613D01*
G01X21161Y631D01*
G01X21143Y650D01*
G01X21500Y759D02*
G01X21464Y796D01*
G01X21427Y813D01*
G01X21372Y813D01*
G01X21335Y796D01*
G01X21300Y759D01*
G01X21281Y704D01*
G01X21281Y669D01*
G01X21300Y613D01*
G01X21335Y577D01*
G01X21372Y559D01*
G01X21427Y559D01*
G01X21464Y577D01*
G01X21500Y613D01*
G01X21710Y813D02*
G01X21675Y796D01*
G01X21638Y759D01*
G01X21619Y704D01*
G01X21619Y669D01*
G01X21638Y613D01*
G01X21675Y577D01*
G01X21710Y559D01*
G01X21765Y559D01*
G01X21802Y577D01*
G01X21838Y613D01*
G01X21856Y669D01*
G01X21856Y704D01*
G01X21838Y759D01*
G01X21802Y796D01*
G01X21765Y813D01*
G01X21710Y813D01*
G01X21976Y813D02*
G01X21976Y559D01*
G01X21976Y740D02*
G01X22031Y796D01*
G01X22067Y813D01*
G01X22122Y813D01*
G01X22157Y796D01*
G01X22176Y740D01*
G01X22176Y559D01*
G01X22176Y740D02*
G01X22231Y796D01*
G01X22267Y813D01*
G01X22322Y813D01*
G01X22357Y796D01*
G01X22376Y740D01*
G01X22376Y559D01*
G01X8200Y1878D02*
G01X8200Y1496D01*
G01X8200Y1878D02*
G01X8364Y1878D01*
G01X8418Y1860D01*
G01X8436Y1842D01*
G01X8454Y1805D01*
G01X8454Y1769D01*
G01X8436Y1732D01*
G01X8418Y1714D01*
G01X8364Y1696D01*
G01X8200Y1696D02*
G01X8364Y1696D01*
G01X8418Y1678D01*
G01X8436Y1660D01*
G01X8454Y1623D01*
G01X8454Y1569D01*
G01X8436Y1532D01*
G01X8418Y1514D01*
G01X8364Y1496D01*
G01X8200Y1496D01*
G01X8702Y1878D02*
G01X8702Y1496D01*
G01X8574Y1878D02*
G01X8829Y1878D01*
G01X8949Y1878D02*
G01X8949Y1496D01*
G01X8949Y1878D02*
G01X9204Y1496D01*
G01X9204Y1878D02*
G01X9204Y1496D01*
G01X9324Y1805D02*
G01X9360Y1823D01*
G01X9414Y1878D01*
G01X9414Y1496D01*
G01X10500Y1878D02*
G01X10500Y1496D01*
G01X10500Y1878D02*
G01X10664Y1878D01*
G01X10718Y1859D01*
G01X10736Y1841D01*
G01X10754Y1805D01*
G01X10754Y1768D01*
G01X10736Y1732D01*
G01X10718Y1714D01*
G01X10664Y1696D01*
G01X10500Y1696D02*
G01X10664Y1696D01*
G01X10718Y1678D01*
G01X10736Y1659D01*
G01X10754Y1623D01*
G01X10754Y1568D01*
G01X10736Y1532D01*
G01X10718Y1514D01*
G01X10664Y1496D01*
G01X10500Y1496D01*
G01X11002Y1878D02*
G01X11002Y1496D01*
G01X10874Y1878D02*
G01X11129Y1878D01*
G01X11249Y1878D02*
G01X11249Y1496D01*
G01X11249Y1878D02*
G01X11504Y1496D01*
G01X11504Y1878D02*
G01X11504Y1496D01*
G01X11642Y1787D02*
G01X11642Y1805D01*
G01X11660Y1841D01*
G01X11678Y1859D01*
G01X11714Y1878D01*
G01X11787Y1878D01*
G01X11824Y1859D01*
G01X11842Y1841D01*
G01X11860Y1805D01*
G01X11860Y1768D01*
G01X11842Y1732D01*
G01X11805Y1678D01*
G01X11624Y1496D01*
G01X11878Y1496D01*
G01X12807Y1880D02*
G01X12807Y1498D01*
G01X12807Y1880D02*
G01X12971Y1880D01*
G01X13026Y1861D01*
G01X13043Y1844D01*
G01X13061Y1807D01*
G01X13061Y1771D01*
G01X13043Y1734D01*
G01X13026Y1717D01*
G01X12971Y1698D01*
G01X12807Y1698D02*
G01X12971Y1698D01*
G01X13026Y1680D01*
G01X13043Y1661D01*
G01X13061Y1625D01*
G01X13061Y1571D01*
G01X13043Y1534D01*
G01X13026Y1517D01*
G01X12971Y1498D01*
G01X12807Y1498D01*
G01X13309Y1880D02*
G01X13309Y1498D01*
G01X13181Y1880D02*
G01X13436Y1880D01*
G01X13556Y1880D02*
G01X13556Y1498D01*
G01X13556Y1880D02*
G01X13810Y1498D01*
G01X13810Y1880D02*
G01X13810Y1498D01*
G01X13968Y1880D02*
G01X14168Y1880D01*
G01X14057Y1734D01*
G01X14113Y1734D01*
G01X14148Y1717D01*
G01X14168Y1698D01*
G01X14185Y1644D01*
G01X14185Y1607D01*
G01X14168Y1552D01*
G01X14131Y1517D01*
G01X14077Y1498D01*
G01X14022Y1498D01*
G01X13968Y1517D01*
G01X13948Y1534D01*
G01X13931Y1571D01*
G01X20617Y8978D02*
G01X20435Y8978D01*
G01X20417Y8814D01*
G01X20435Y8833D01*
G01X20490Y8851D01*
G01X20545Y8851D01*
G01X20599Y8833D01*
G01X20635Y8796D01*
G01X20654Y8742D01*
G01X20654Y8705D01*
G01X20635Y8651D01*
G01X20599Y8614D01*
G01X20545Y8596D01*
G01X20490Y8596D01*
G01X20435Y8614D01*
G01X20417Y8633D01*
G01X20399Y8669D01*
G01X20774Y8978D02*
G01X20919Y8596D01*
G01X21065Y8978D02*
G01X20919Y8596D01*
G01X20372Y8086D02*
G01X20355Y8123D01*
G01X20318Y8159D01*
G01X20281Y8177D01*
G01X20209Y8177D01*
G01X20172Y8159D01*
G01X20135Y8123D01*
G01X20118Y8086D01*
G01X20100Y8032D01*
G01X20100Y7941D01*
G01X20118Y7886D01*
G01X20135Y7850D01*
G01X20172Y7814D01*
G01X20209Y7795D01*
G01X20281Y7795D01*
G01X20318Y7814D01*
G01X20355Y7850D01*
G01X20372Y7886D01*
G01X20372Y7941D01*
G01X20281Y7941D02*
G01X20372Y7941D01*
G01X20493Y8177D02*
G01X20493Y7795D01*
G01X20493Y8177D02*
G01X20747Y7795D01*
G01X20747Y8177D02*
G01X20747Y7795D01*
G01X20867Y8177D02*
G01X20867Y7795D01*
G01X20867Y8177D02*
G01X20994Y8177D01*
G01X21048Y8159D01*
G01X21085Y8123D01*
G01X21103Y8086D01*
G01X21122Y8032D01*
G01X21122Y7941D01*
G01X21103Y7886D01*
G01X21085Y7850D01*
G01X21048Y7814D01*
G01X20994Y7795D01*
G01X20867Y7795D01*
G01X20399Y7378D02*
G01X20399Y6996D01*
G01X20399Y7378D02*
G01X20563Y7378D01*
G01X20617Y7359D01*
G01X20635Y7341D01*
G01X20654Y7305D01*
G01X20654Y7269D01*
G01X20635Y7232D01*
G01X20617Y7214D01*
G01X20563Y7196D01*
G01X20399Y7196D01*
G01X20526Y7196D02*
G01X20654Y6996D01*
G01X20774Y7378D02*
G01X21028Y6996D01*
G01X21028Y7378D02*
G01X20774Y6996D01*
G01X20527Y6578D02*
G01X20527Y6196D01*
G01X20400Y6578D02*
G01X20654Y6578D01*
G01X20774Y6578D02*
G01X21029Y6196D01*
G01X21029Y6578D02*
G01X20774Y6196D01*
G01X8681Y11177D02*
G01X8681Y10995D01*
G01X8845Y10977D01*
G01X8826Y10995D01*
G01X8808Y11050D01*
G01X8808Y11105D01*
G01X8826Y11159D01*
G01X8863Y11195D01*
G01X8917Y11214D01*
G01X8954Y11214D01*
G01X9008Y11195D01*
G01X9045Y11159D01*
G01X9063Y11105D01*
G01X9063Y11050D01*
G01X9045Y10995D01*
G01X9026Y10977D01*
G01X8990Y10959D01*
G01X8681Y11334D02*
G01X9063Y11479D01*
G01X8681Y11625D02*
G01X9063Y11479D01*
G01X9573Y10877D02*
G01X9536Y10859D01*
G01X9500Y10822D01*
G01X9482Y10786D01*
G01X9482Y10713D01*
G01X9500Y10677D01*
G01X9536Y10640D01*
G01X9573Y10622D01*
G01X9627Y10604D01*
G01X9718Y10604D01*
G01X9773Y10622D01*
G01X9809Y10640D01*
G01X9845Y10677D01*
G01X9864Y10713D01*
G01X9864Y10786D01*
G01X9845Y10822D01*
G01X9809Y10859D01*
G01X9773Y10877D01*
G01X9718Y10877D01*
G01X9718Y10786D02*
G01X9718Y10877D01*
G01X9482Y10997D02*
G01X9864Y10997D01*
G01X9482Y10997D02*
G01X9864Y11251D01*
G01X9482Y11251D02*
G01X9864Y11251D01*
G01X9482Y11371D02*
G01X9864Y11371D01*
G01X9482Y11371D02*
G01X9482Y11499D01*
G01X9500Y11553D01*
G01X9536Y11589D01*
G01X9573Y11608D01*
G01X9627Y11626D01*
G01X9718Y11626D01*
G01X9773Y11608D01*
G01X9809Y11589D01*
G01X9845Y11553D01*
G01X9864Y11499D01*
G01X9864Y11371D01*
G01X10281Y10996D02*
G01X10663Y10996D01*
G01X10281Y10996D02*
G01X10281Y11161D01*
G01X10300Y11215D01*
G01X10318Y11232D01*
G01X10354Y11251D01*
G01X10390Y11251D01*
G01X10427Y11232D01*
G01X10445Y11215D01*
G01X10463Y11161D01*
G01X10463Y10996D01*
G01X10463Y11123D02*
G01X10663Y11251D01*
G01X10281Y11371D02*
G01X10663Y11625D01*
G01X10281Y11625D02*
G01X10663Y11371D01*
G01X11081Y11123D02*
G01X11463Y11123D01*
G01X11081Y10996D02*
G01X11081Y11250D01*
G01X11081Y11371D02*
G01X11463Y11625D01*
G01X11081Y11625D02*
G01X11463Y11371D01*
G01X1799Y2777D02*
G01X1945Y2395D01*
G01X2090Y2777D02*
G01X1945Y2395D01*
G01X2483Y2686D02*
G01X2465Y2723D01*
G01X2428Y2759D01*
G01X2392Y2777D01*
G01X2319Y2777D01*
G01X2283Y2759D01*
G01X2247Y2723D01*
G01X2228Y2686D01*
G01X2210Y2632D01*
G01X2210Y2541D01*
G01X2228Y2486D01*
G01X2247Y2450D01*
G01X2283Y2414D01*
G01X2319Y2395D01*
G01X2392Y2395D01*
G01X2428Y2414D01*
G01X2465Y2450D01*
G01X2483Y2486D01*
G01X2876Y2686D02*
G01X2858Y2723D01*
G01X2821Y2759D01*
G01X2785Y2777D01*
G01X2712Y2777D01*
G01X2676Y2759D01*
G01X2639Y2723D01*
G01X2621Y2686D01*
G01X2603Y2632D01*
G01X2603Y2541D01*
G01X2621Y2486D01*
G01X2639Y2450D01*
G01X2676Y2414D01*
G01X2712Y2395D01*
G01X2785Y2395D01*
G01X2821Y2414D01*
G01X2858Y2450D01*
G01X2876Y2486D01*
G01X2072Y3687D02*
G01X2054Y3723D01*
G01X2018Y3759D01*
G01X1982Y3777D01*
G01X1909Y3777D01*
G01X1872Y3759D01*
G01X1836Y3723D01*
G01X1818Y3687D01*
G01X1800Y3632D01*
G01X1800Y3541D01*
G01X1818Y3487D01*
G01X1836Y3450D01*
G01X1872Y3414D01*
G01X1909Y3396D01*
G01X1982Y3396D01*
G01X2018Y3414D01*
G01X2054Y3450D01*
G01X2072Y3487D01*
G01X2072Y3541D01*
G01X1982Y3541D02*
G01X2072Y3541D01*
G01X2192Y3777D02*
G01X2192Y3396D01*
G01X2192Y3777D02*
G01X2447Y3396D01*
G01X2447Y3777D02*
G01X2447Y3396D01*
G01X2567Y3777D02*
G01X2567Y3396D01*
G01X2567Y3777D02*
G01X2694Y3777D01*
G01X2749Y3759D01*
G01X2785Y3723D01*
G01X2803Y3687D01*
G01X2822Y3632D01*
G01X2822Y3541D01*
G01X2803Y3487D01*
G01X2785Y3450D01*
G01X2749Y3414D01*
G01X2694Y3396D01*
G01X2567Y3396D01*
G01X2072Y4687D02*
G01X2054Y4723D01*
G01X2018Y4759D01*
G01X1982Y4777D01*
G01X1909Y4777D01*
G01X1872Y4759D01*
G01X1836Y4723D01*
G01X1818Y4687D01*
G01X1800Y4632D01*
G01X1800Y4541D01*
G01X1818Y4487D01*
G01X1836Y4450D01*
G01X1872Y4414D01*
G01X1909Y4396D01*
G01X1982Y4396D01*
G01X2018Y4414D01*
G01X2054Y4450D01*
G01X2072Y4487D01*
G01X2072Y4541D01*
G01X1982Y4541D02*
G01X2072Y4541D01*
G01X2192Y4777D02*
G01X2192Y4396D01*
G01X2192Y4777D02*
G01X2447Y4396D01*
G01X2447Y4777D02*
G01X2447Y4396D01*
G01X2567Y4777D02*
G01X2567Y4396D01*
G01X2567Y4777D02*
G01X2694Y4777D01*
G01X2749Y4759D01*
G01X2785Y4723D01*
G01X2803Y4687D01*
G01X2822Y4632D01*
G01X2822Y4541D01*
G01X2803Y4487D01*
G01X2785Y4450D01*
G01X2749Y4414D01*
G01X2694Y4396D01*
G01X2567Y4396D01*
G01X2073Y8686D02*
G01X2055Y8723D01*
G01X2017Y8759D01*
G01X1982Y8777D01*
G01X1909Y8777D01*
G01X1873Y8759D01*
G01X1836Y8723D01*
G01X1817Y8686D01*
G01X1800Y8632D01*
G01X1800Y8542D01*
G01X1817Y8486D01*
G01X1836Y8450D01*
G01X1873Y8415D01*
G01X1909Y8396D01*
G01X1982Y8396D01*
G01X2017Y8415D01*
G01X2055Y8450D01*
G01X2073Y8486D01*
G01X2192Y8777D02*
G01X2192Y8396D01*
G01X2192Y8396D02*
G01X2411Y8396D01*
G01X2530Y8777D02*
G01X2530Y8396D01*
G01X2784Y8777D02*
G01X2530Y8523D01*
G01X2621Y8615D02*
G01X2784Y8396D01*
G01X2054Y9723D02*
G01X2018Y9759D01*
G01X1963Y9778D01*
G01X1890Y9778D01*
G01X1836Y9759D01*
G01X1799Y9723D01*
G01X1799Y9687D01*
G01X1818Y9650D01*
G01X1836Y9632D01*
G01X1872Y9614D01*
G01X1981Y9578D01*
G01X2018Y9559D01*
G01X2036Y9541D01*
G01X2054Y9505D01*
G01X2054Y9450D01*
G01X2018Y9414D01*
G01X1963Y9396D01*
G01X1890Y9396D01*
G01X1836Y9414D01*
G01X1799Y9450D01*
G01X2174Y9778D02*
G01X2174Y9396D01*
G01X2174Y9778D02*
G01X2301Y9778D01*
G01X2356Y9759D01*
G01X2392Y9723D01*
G01X2410Y9687D01*
G01X2429Y9632D01*
G01X2429Y9541D01*
G01X2410Y9487D01*
G01X2392Y9450D01*
G01X2356Y9414D01*
G01X2301Y9396D01*
G01X2174Y9396D01*
G01X2694Y9778D02*
G01X2549Y9396D01*
G01X2694Y9778D02*
G01X2839Y9396D01*
G01X2603Y9523D02*
G01X2785Y9523D01*
G01X1800Y10778D02*
G01X1800Y10396D01*
G01X1800Y10778D02*
G01X1963Y10778D01*
G01X2017Y10759D01*
G01X2036Y10741D01*
G01X2055Y10705D01*
G01X2055Y10669D01*
G01X2036Y10632D01*
G01X2017Y10614D01*
G01X1963Y10596D01*
G01X1800Y10596D01*
G01X1926Y10596D02*
G01X2055Y10396D01*
G01X2428Y10723D02*
G01X2392Y10759D01*
G01X2338Y10778D01*
G01X2265Y10778D01*
G01X2211Y10759D01*
G01X2175Y10723D01*
G01X2175Y10687D01*
G01X2192Y10650D01*
G01X2211Y10632D01*
G01X2246Y10614D01*
G01X2355Y10578D01*
G01X2392Y10559D01*
G01X2411Y10541D01*
G01X2428Y10505D01*
G01X2428Y10450D01*
G01X2392Y10414D01*
G01X2338Y10396D01*
G01X2265Y10396D01*
G01X2211Y10414D01*
G01X2175Y10450D01*
G01X1799Y11781D02*
G01X1799Y11400D01*
G01X1799Y11781D02*
G01X1963Y11781D01*
G01X2017Y11763D01*
G01X2036Y11746D01*
G01X2054Y11709D01*
G01X2054Y11673D01*
G01X2036Y11636D01*
G01X2017Y11619D01*
G01X1963Y11600D01*
G01X1799Y11600D01*
G01X1927Y11600D02*
G01X2054Y11400D01*
G01X2428Y11727D02*
G01X2392Y11763D01*
G01X2337Y11781D01*
G01X2265Y11781D01*
G01X2210Y11763D01*
G01X2174Y11727D01*
G01X2174Y11690D01*
G01X2192Y11654D01*
G01X2210Y11636D01*
G01X2247Y11619D01*
G01X2356Y11581D01*
G01X2392Y11563D01*
G01X2410Y11546D01*
G01X2428Y11509D01*
G01X2428Y11454D01*
G01X2392Y11419D01*
G01X2337Y11400D01*
G01X2265Y11400D01*
G01X2210Y11419D01*
G01X2174Y11454D01*
G01X2676Y11781D02*
G01X2676Y11400D01*
G01X2548Y11781D02*
G01X2803Y11781D01*
G01X2071Y12663D02*
G01X2053Y12698D01*
G01X2017Y12734D01*
G01X1981Y12753D01*
G01X1908Y12753D01*
G01X1871Y12734D01*
G01X1835Y12698D01*
G01X1817Y12663D01*
G01X1799Y12607D01*
G01X1799Y12517D01*
G01X1817Y12463D01*
G01X1835Y12425D01*
G01X1871Y12390D01*
G01X1908Y12371D01*
G01X1981Y12371D01*
G01X2017Y12390D01*
G01X2053Y12425D01*
G01X2071Y12463D01*
G01X2446Y12698D02*
G01X2410Y12734D01*
G01X2355Y12753D01*
G01X2282Y12753D01*
G01X2228Y12734D01*
G01X2191Y12698D01*
G01X2191Y12663D01*
G01X2210Y12625D01*
G01X2228Y12607D01*
G01X2264Y12590D01*
G01X2373Y12553D01*
G01X2410Y12534D01*
G01X2428Y12517D01*
G01X2446Y12480D01*
G01X2446Y12425D01*
G01X2410Y12390D01*
G01X2355Y12371D01*
G01X2282Y12371D01*
G01X2228Y12390D01*
G01X2191Y12425D01*
G54D24*
G75*
G01X5950Y867D02*
G3X5948Y867I-1J118D01*
G01*
G54D10*
G75*
G01X5550Y591D02*
G3X5050Y591I-250J0D01*
G01*
G54D25*
G75*
G01X6796Y497D02*
G3X6795Y497I-1J59D01*
G01*
G54D10*
G75*
G01X10185Y9135D02*
G3X8415Y9135I-885J0D01*
G01*
G75*
G01X8415Y6655D02*
G3X10185Y6655I885J0D01*
G01*
M00*
M02*
