G04 ---------------------------- Layer name :BOTTOM LAYER*
G04 EasyEDA v5.8.20, Tue, 30 Oct 2018 19:36:29 GMT*
G04 21df6059e9d248348c3a5d6df7ddc240*
G04 Gerber Generator version 0.2*
G04 Scale: 100 percent, Rotated: No, Reflected: No *
G04 Dimensions in inches *
G04 leading zeros omitted , absolute positions ,2 integer and 4 decimal *
%FSLAX24Y24*%
%MOIN*%
G90*
G70D02*

%ADD10C,0.010000*%
%ADD11C,0.059055*%
%ADD12R,0.059055X0.059055*%
%ADD13C,0.062992*%
%ADD14C,0.062000*%
%ADD15R,0.062000X0.062000*%
%ADD16R,0.051200X0.059100*%
%ADD17C,0.047000*%
%ADD18C,0.074000*%
%ADD19R,0.085000X0.047200*%
%ADD20R,0.047200X0.085000*%

%LPD*%
G54D10*
G01X1100Y11559D02*
G01X3300Y11559D01*
G01X3800Y11059D01*
G01X1096Y12565D02*
G01X3305Y12565D01*
G01X3800Y13059D01*
G01X1100Y3559D02*
G01X1100Y4559D01*
G01X1100Y4559D02*
G01X1300Y4559D01*
G01X3800Y7059D01*
G01X3800Y7059D02*
G01X5800Y7059D01*
G01X6800Y8059D01*
G01X8390Y959D02*
G01X8390Y969D01*
G01X7800Y1559D01*
G01X5300Y1559D01*
G01X3800Y3059D01*
G01X10689Y959D02*
G01X10689Y969D01*
G01X9100Y2559D01*
G01X5300Y2559D01*
G01X3800Y4059D01*
G01X13989Y959D02*
G01X13989Y2369D01*
G01X12600Y3759D01*
G01X12600Y6919D01*
G01X12589Y6929D01*
G01X12989Y959D02*
G01X12989Y969D01*
G01X10400Y3559D01*
G01X5300Y3559D01*
G01X3800Y5059D01*
G01X13900Y3459D02*
G01X13900Y5559D01*
G01X16900Y3459D02*
G01X16900Y5559D01*
G01X16900Y5559D02*
G01X18160Y5559D01*
G01X18189Y5529D01*
G01X13900Y5559D02*
G01X13900Y7559D01*
G01X17900Y11559D01*
G01X19189Y5529D02*
G01X19189Y7950D01*
G01X20900Y9659D01*
G01X20900Y11559D01*
G54D11*
G01X3800Y14059D03*
G01X3800Y13059D03*
G01X3800Y12059D03*
G01X3800Y11059D03*
G01X3800Y10059D03*
G01X3800Y9059D03*
G01X3800Y8059D03*
G01X3800Y7059D03*
G01X3800Y6059D03*
G01X3800Y5059D03*
G01X3800Y4059D03*
G01X3800Y3059D03*
G01X3800Y2059D03*
G01X3800Y1059D03*
G01X6800Y14059D03*
G01X6800Y13059D03*
G01X6800Y12059D03*
G01X6800Y11059D03*
G01X6800Y10059D03*
G01X6800Y9059D03*
G01X6800Y8059D03*
G01X6800Y7059D03*
G01X6800Y6059D03*
G01X6800Y5059D03*
G01X6800Y4059D03*
G01X6800Y3059D03*
G01X6800Y2059D03*
G54D12*
G01X6800Y1059D03*
G54D13*
G01X16900Y5559D03*
G01X13900Y5559D03*
G54D14*
G01X1100Y11559D03*
G01X1100Y10559D03*
G01X1100Y9559D03*
G01X1100Y8559D03*
G01X1100Y7559D03*
G01X1100Y6559D03*
G01X1100Y5559D03*
G01X1100Y4559D03*
G01X1100Y3559D03*
G54D15*
G01X1100Y2559D03*
G54D14*
G01X1096Y12565D03*
G54D16*
G01X12989Y959D03*
G01X13989Y959D03*
G01X11689Y959D03*
G01X8390Y959D03*
G01X9389Y959D03*
G01X10689Y959D03*
G54D14*
G01X15900Y11559D03*
G01X16900Y11559D03*
G01X17900Y11559D03*
G01X18900Y11559D03*
G01X19900Y11559D03*
G54D15*
G01X20900Y11559D03*
G54D17*
G01X18189Y5529D03*
G01X19189Y5529D03*
G54D13*
G01X9300Y8860D03*
G01X9300Y6930D03*
G54D17*
G01X11589Y8829D03*
G01X12589Y8829D03*
G01X11589Y6929D03*
G01X12589Y6929D03*
G54D18*
G01X16900Y3459D03*
G01X13900Y3459D03*
G54D19*
G01X22180Y6369D03*
G01X22180Y7159D03*
G01X22180Y7950D03*
G01X22180Y8729D03*
G54D20*
G01X11289Y12740D03*
G01X10500Y12740D03*
G01X9710Y12740D03*
G01X8930Y12740D03*
M00*
M02*
