G04 ---------------------------- Layer name :BOTTOM SOLDER LAYER*
G04 EasyEDA v5.8.20, Tue, 30 Oct 2018 19:36:29 GMT*
G04 21df6059e9d248348c3a5d6df7ddc240*
G04 Gerber Generator version 0.2*
G04 Scale: 100 percent, Rotated: No, Reflected: No *
G04 Dimensions in inches *
G04 leading zeros omitted , absolute positions ,2 integer and 4 decimal *
%FSLAX24Y24*%
%MOIN*%
G90*
G70D02*

%ADD29C,0.067055*%
%ADD30R,0.067055X0.067055*%
%ADD31C,0.070992*%
%ADD32C,0.070000*%
%ADD33R,0.070000X0.070000*%
%ADD34R,0.059200X0.067100*%
%ADD35C,0.055000*%
%ADD36C,0.082000*%
%ADD37R,0.093000X0.055200*%
%ADD38R,0.055200X0.093000*%

%LPD*%
G54D29*
G01X3800Y14059D03*
G01X3800Y13059D03*
G01X3800Y12059D03*
G01X3800Y11059D03*
G01X3800Y10059D03*
G01X3800Y9059D03*
G01X3800Y8059D03*
G01X3800Y7059D03*
G01X3800Y6059D03*
G01X3800Y5059D03*
G01X3800Y4059D03*
G01X3800Y3059D03*
G01X3800Y2059D03*
G01X3800Y1059D03*
G01X6800Y14059D03*
G01X6800Y13059D03*
G01X6800Y12059D03*
G01X6800Y11059D03*
G01X6800Y10059D03*
G01X6800Y9059D03*
G01X6800Y8059D03*
G01X6800Y7059D03*
G01X6800Y6059D03*
G01X6800Y5059D03*
G01X6800Y4059D03*
G01X6800Y3059D03*
G01X6800Y2059D03*
G54D30*
G01X6800Y1059D03*
G54D31*
G01X16900Y5559D03*
G01X13900Y5559D03*
G54D32*
G01X1100Y11559D03*
G01X1100Y10559D03*
G01X1100Y9559D03*
G01X1100Y8559D03*
G01X1100Y7559D03*
G01X1100Y6559D03*
G01X1100Y5559D03*
G01X1100Y4559D03*
G01X1100Y3559D03*
G54D33*
G01X1100Y2559D03*
G54D32*
G01X1096Y12565D03*
G54D34*
G01X12989Y959D03*
G01X13989Y959D03*
G01X11689Y959D03*
G01X8390Y959D03*
G01X9389Y959D03*
G01X10689Y959D03*
G54D32*
G01X15900Y11559D03*
G01X16900Y11559D03*
G01X17900Y11559D03*
G01X18900Y11559D03*
G01X19900Y11559D03*
G54D33*
G01X20900Y11559D03*
G54D35*
G01X18189Y5529D03*
G01X19189Y5529D03*
G54D31*
G01X9300Y8860D03*
G01X9300Y6930D03*
G54D35*
G01X11589Y8829D03*
G01X12589Y8829D03*
G01X11589Y6929D03*
G01X12589Y6929D03*
G54D36*
G01X16900Y3459D03*
G01X13900Y3459D03*
G54D37*
G01X22180Y6369D03*
G01X22180Y7159D03*
G01X22180Y7950D03*
G01X22180Y8729D03*
G54D38*
G01X11289Y12740D03*
G01X10500Y12740D03*
G01X9710Y12740D03*
G01X8930Y12740D03*
M00*
M02*
