;PTH Drill file created by EasyEDA 
M48
INCH,LZ,00.0000
;Holesize 1 = 0.028 INCH
T01C0.028
;Holesize 2 = 0.028 INCH
T02C0.028
;Holesize 3 = 0.031 INCH
T03C0.031
;Holesize 4 = 0.032 INCH
T04C0.032
;Holesize 5 = 0.035 INCH
T05C0.035
;Holesize 6 = 0.035 INCH
T06C0.035
;Holesize 7 = 0.035 INCH
T07C0.035
;Holesize 8 = 0.039 INCH
T08C0.039
%
G05
G90
T01
X+009300Y+008860
X+009300Y+006930
T02
X+018189Y+005529
X+019189Y+005529
X+011589Y+008829
X+012589Y+008829
X+011589Y+006929
X+012589Y+006929
T03
X+012989Y+000959
X+013989Y+000959
X+011689Y+000959
X+008390Y+000959
X+009389Y+000959
X+010689Y+000959
T04
X+022180Y+006369
X+022180Y+007159
X+022180Y+007950
X+022180Y+008729
X+011289Y+012740
X+010500Y+012740
X+009710Y+012740
X+008930Y+012740
T05
X+001100Y+011559
X+001100Y+010559
X+001100Y+009559
X+001100Y+008559
X+001100Y+007559
X+001100Y+006559
X+001100Y+005559
X+001100Y+004559
X+001100Y+003559
X+001100Y+002559
X+001096Y+012565
X+015900Y+011559
X+016900Y+011559
X+017900Y+011559
X+018900Y+011559
X+019900Y+011559
X+020900Y+011559
T06
X+016900Y+003459
X+013900Y+003459
T07
X+003800Y+014059
X+003800Y+013059
X+003800Y+012059
X+003800Y+011059
X+003800Y+010059
X+003800Y+009059
X+003800Y+008059
X+003800Y+007059
X+003800Y+006059
X+003800Y+005059
X+003800Y+004059
X+003800Y+003059
X+003800Y+002059
X+003800Y+001059
X+006800Y+014059
X+006800Y+013059
X+006800Y+012059
X+006800Y+011059
X+006800Y+010059
X+006800Y+009059
X+006800Y+008059
X+006800Y+007059
X+006800Y+006059
X+006800Y+005059
X+006800Y+004059
X+006800Y+003059
X+006800Y+002059
X+006800Y+001059
T08
X+016900Y+005559
X+013900Y+005559
M30
