G04 ---------------------------- Layer name :BOTTOM SOLDER LAYER*
G04 EasyEDA v5.8.22, Fri, 28 Dec 2018 22:43:13 GMT*
G04 4aab34f19f4e443da7e81b0ac1b812b4*
G04 Gerber Generator version 0.2*
G04 Scale: 100 percent, Rotated: No, Reflected: No *
G04 Dimensions in inches *
G04 leading zeros omitted , absolute positions ,2 integer and 4 decimal *
%FSLAX24Y24*%
%MOIN*%
G90*
G70D02*

%ADD31C,0.067055*%
%ADD32R,0.067055X0.067055*%
%ADD33C,0.070992*%
%ADD34C,0.070000*%
%ADD35R,0.070000X0.070000*%
%ADD36R,0.059200X0.067100*%
%ADD37C,0.082000*%
%ADD38R,0.093000X0.055200*%
%ADD39C,0.055000*%
%ADD40R,0.059200X0.059200*%
%ADD41C,0.068000*%
%ADD42C,0.055008*%

%LPD*%
G54D31*
G01X3800Y14059D03*
G01X3800Y13059D03*
G01X3800Y12059D03*
G01X3800Y11059D03*
G01X3800Y10059D03*
G01X3800Y9059D03*
G01X3800Y8059D03*
G01X3800Y7059D03*
G01X3800Y6059D03*
G01X3800Y5059D03*
G01X3800Y4059D03*
G01X3800Y3059D03*
G01X3800Y2059D03*
G01X3800Y1059D03*
G01X6800Y14059D03*
G01X6800Y13059D03*
G01X6800Y12059D03*
G01X6800Y11059D03*
G01X6800Y10059D03*
G01X6800Y9059D03*
G01X6800Y8059D03*
G01X6800Y7059D03*
G01X6800Y6059D03*
G01X6800Y5059D03*
G01X6800Y4059D03*
G01X6800Y3059D03*
G01X6800Y2059D03*
G54D32*
G01X6800Y1059D03*
G54D33*
G01X16600Y2559D03*
G01X16600Y5559D03*
G54D34*
G01X1100Y11559D03*
G01X1100Y10559D03*
G01X1100Y9559D03*
G01X1100Y8559D03*
G01X1100Y7559D03*
G01X1100Y6559D03*
G01X1100Y5559D03*
G01X1100Y4559D03*
G01X1100Y3559D03*
G54D35*
G01X1100Y2559D03*
G54D34*
G01X1096Y12565D03*
G54D36*
G01X12789Y959D03*
G01X13789Y959D03*
G01X11489Y959D03*
G01X8190Y959D03*
G01X9189Y959D03*
G01X10489Y959D03*
G54D34*
G01X15900Y11259D03*
G01X16900Y11259D03*
G01X17900Y11259D03*
G01X18900Y11259D03*
G01X19900Y11259D03*
G54D35*
G01X20900Y11259D03*
G54D33*
G01X11900Y8860D03*
G01X11900Y6930D03*
G54D37*
G01X15000Y2559D03*
G01X15000Y5559D03*
G54D38*
G01X22180Y5569D03*
G01X22180Y6359D03*
G01X22180Y7150D03*
G01X22180Y7929D03*
G54D39*
G01X18189Y5529D03*
G01X19189Y5529D03*
G54D36*
G01X18189Y2559D03*
G54D40*
G01X19189Y2559D03*
G54D37*
G01X23500Y2559D03*
G01X20500Y2559D03*
G54D41*
G01X13800Y12559D03*
G01X7800Y12559D03*
G54D42*
G01X13989Y6929D03*
G01X14789Y6929D03*
G01X13989Y8829D03*
G01X14789Y8829D03*
M00*
M02*
