G04 ---------------------------- Layer name :TOP SILK LAYER*
G04 EasyEDA v5.8.22, Fri, 28 Dec 2018 22:43:13 GMT*
G04 4aab34f19f4e443da7e81b0ac1b812b4*
G04 Gerber Generator version 0.2*
G04 Scale: 100 percent, Rotated: No, Reflected: No *
G04 Dimensions in inches *
G04 leading zeros omitted , absolute positions ,2 integer and 4 decimal *
%FSLAX24Y24*%
%MOIN*%
G90*
G70D02*

%ADD10C,0.010000*%
%ADD23C,0.008000*%
%ADD24C,0.007992*%
%ADD25C,0.007900*%
%ADD26C,0.023622*%
%ADD27C,0.011811*%
%ADD28C,0.005000*%
%ADD29C,0.007000*%
%ADD30C,0.006000*%

%LPD*%
G54D10*
G01X5050Y590D02*
G01X4257Y590D01*
G01X4257Y14527D01*
G01X6342Y14527D01*
G01X6342Y590D01*
G01X5550Y590D01*
G01X16167Y3232D02*
G01X16167Y4886D01*
G01X16167Y4886D02*
G01X17032Y4886D01*
G01X17032Y4886D02*
G01X17032Y3232D01*
G01X17032Y3232D02*
G01X16167Y3232D01*
G01X16200Y4459D02*
G01X17000Y4459D01*
G01X16200Y4559D02*
G01X17000Y4559D01*
G54D23*
G01X600Y2809D02*
G01X600Y2059D01*
G01X1600Y2059D01*
G01X1600Y13059D01*
G01X600Y13059D01*
G01X600Y12059D01*
G54D24*
G01X600Y12059D02*
G01X600Y2809D01*
G54D10*
G01X13100Y609D02*
G01X13100Y1309D01*
G01X12489Y1309D01*
G01X12489Y609D01*
G01X13100Y609D01*
G01X14100Y609D02*
G01X14100Y1309D01*
G01X13489Y1309D01*
G01X13489Y609D01*
G01X14100Y609D01*
G01X11800Y609D02*
G01X11800Y1309D01*
G01X11189Y1309D01*
G01X11189Y609D01*
G01X11800Y609D01*
G01X8500Y609D02*
G01X8500Y1309D01*
G01X7890Y1309D01*
G01X7890Y609D01*
G01X8500Y609D01*
G01X9500Y609D02*
G01X9500Y1309D01*
G01X8890Y1309D01*
G01X8890Y609D01*
G01X9500Y609D01*
G01X10800Y609D02*
G01X10800Y1309D01*
G01X10189Y1309D01*
G01X10189Y609D01*
G01X10800Y609D01*
G54D23*
G01X20650Y10759D02*
G01X21400Y10759D01*
G01X21400Y11759D01*
G01X15400Y11759D01*
G01X15400Y10759D01*
G54D24*
G01X15400Y10759D02*
G01X20650Y10759D01*
G54D10*
G01X11014Y9136D02*
G01X11014Y6655D01*
G01X12785Y9136D02*
G01X12785Y6655D01*
G01X14700Y3059D02*
G01X14700Y5059D01*
G01X14700Y5059D02*
G01X15000Y5059D01*
G01X15000Y5059D02*
G01X15300Y5059D01*
G01X15300Y5059D02*
G01X15300Y3059D01*
G01X15300Y3059D02*
G01X15000Y3059D01*
G01X15000Y3059D02*
G01X14700Y3059D01*
G01X15000Y5059D02*
G01X15000Y5159D01*
G01X15000Y3059D02*
G01X15000Y2959D01*
G01X21260Y4800D02*
G01X21260Y8679D01*
G01X21260Y8679D02*
G01X23030Y8679D01*
G01X23030Y8679D02*
G01X23030Y4800D01*
G01X23030Y4800D02*
G01X21260Y4800D01*
G54D25*
G01X19689Y6028D02*
G01X17689Y6028D01*
G01X17689Y5028D01*
G01X19689Y5028D01*
G01X19689Y6028D01*
G54D10*
G01X18500Y2209D02*
G01X18500Y2909D01*
G01X17889Y2909D01*
G01X17889Y2209D01*
G01X18500Y2209D01*
G01X19500Y2209D02*
G01X19500Y2909D01*
G01X18889Y2909D01*
G01X18889Y2209D01*
G01X19500Y2209D01*
G01X23000Y2259D02*
G01X21000Y2259D01*
G01X21000Y2259D02*
G01X21000Y2559D01*
G01X21000Y2559D02*
G01X21000Y2859D01*
G01X21000Y2859D02*
G01X23000Y2859D01*
G01X23000Y2859D02*
G01X23000Y2559D01*
G01X23000Y2559D02*
G01X23000Y2259D01*
G01X21000Y2559D02*
G01X20900Y2559D01*
G01X23000Y2559D02*
G01X23100Y2559D01*
G01X12900Y11559D02*
G01X8569Y11559D01*
G01X8569Y13559D01*
G01X12900Y13559D01*
G01X12900Y11559D01*
G01X13589Y7329D02*
G01X15189Y7329D01*
G01X15189Y6529D01*
G01X13589Y6529D01*
G01X13589Y7329D01*
G01X13589Y9229D02*
G01X15189Y9229D01*
G01X15189Y8429D01*
G01X13589Y8429D01*
G01X13589Y9229D01*
G54D28*
G01X5100Y5176D02*
G01X5528Y5013D01*
G01X5100Y5176D02*
G01X5528Y5340D01*
G01X5386Y5073D02*
G01X5386Y5278D01*
G01X5100Y5617D02*
G01X5528Y5617D01*
G01X5100Y5475D02*
G01X5100Y5761D01*
G01X5100Y5896D02*
G01X5528Y5896D01*
G01X5100Y5896D02*
G01X5528Y6059D01*
G01X5100Y6223D02*
G01X5528Y6059D01*
G01X5100Y6223D02*
G01X5528Y6223D01*
G01X5100Y6358D02*
G01X5528Y6358D01*
G01X5100Y6358D02*
G01X5100Y6625D01*
G01X5303Y6358D02*
G01X5303Y6523D01*
G01X5528Y6358D02*
G01X5528Y6625D01*
G01X5201Y7067D02*
G01X5161Y7046D01*
G01X5119Y7004D01*
G01X5100Y6963D01*
G01X5100Y6882D01*
G01X5119Y6842D01*
G01X5161Y6800D01*
G01X5201Y6779D01*
G01X5263Y6759D01*
G01X5365Y6759D01*
G01X5426Y6779D01*
G01X5467Y6800D01*
G01X5509Y6842D01*
G01X5528Y6882D01*
G01X5528Y6963D01*
G01X5509Y7004D01*
G01X5467Y7046D01*
G01X5426Y7067D01*
G01X5365Y7067D01*
G01X5365Y6963D02*
G01X5365Y7067D01*
G01X5100Y7365D02*
G01X5528Y7201D01*
G01X5100Y7365D02*
G01X5528Y7528D01*
G01X5386Y7263D02*
G01X5386Y7467D01*
G01X5100Y7704D02*
G01X5100Y7929D01*
G01X5263Y7806D01*
G01X5263Y7867D01*
G01X5284Y7908D01*
G01X5303Y7929D01*
G01X5365Y7950D01*
G01X5405Y7950D01*
G01X5467Y7929D01*
G01X5509Y7888D01*
G01X5528Y7827D01*
G01X5528Y7765D01*
G01X5509Y7704D01*
G01X5488Y7683D01*
G01X5446Y7663D01*
G01X5201Y8105D02*
G01X5180Y8105D01*
G01X5140Y8125D01*
G01X5119Y8146D01*
G01X5100Y8188D01*
G01X5100Y8269D01*
G01X5119Y8309D01*
G01X5140Y8330D01*
G01X5180Y8350D01*
G01X5221Y8350D01*
G01X5263Y8330D01*
G01X5325Y8290D01*
G01X5528Y8084D01*
G01X5528Y8371D01*
G01X5100Y8608D02*
G01X5119Y8548D01*
G01X5161Y8526D01*
G01X5201Y8526D01*
G01X5242Y8548D01*
G01X5263Y8588D01*
G01X5284Y8669D01*
G01X5303Y8731D01*
G01X5344Y8773D01*
G01X5386Y8792D01*
G01X5446Y8792D01*
G01X5488Y8773D01*
G01X5509Y8751D01*
G01X5528Y8690D01*
G01X5528Y8608D01*
G01X5509Y8548D01*
G01X5488Y8526D01*
G01X5446Y8506D01*
G01X5386Y8506D01*
G01X5344Y8526D01*
G01X5303Y8567D01*
G01X5284Y8628D01*
G01X5263Y8711D01*
G01X5242Y8751D01*
G01X5201Y8773D01*
G01X5161Y8773D01*
G01X5119Y8751D01*
G01X5100Y8690D01*
G01X5100Y8608D01*
G01X5100Y8927D02*
G01X5528Y8927D01*
G01X5100Y8927D02*
G01X5100Y9111D01*
G01X5119Y9173D01*
G01X5140Y9194D01*
G01X5180Y9213D01*
G01X5242Y9213D01*
G01X5284Y9194D01*
G01X5303Y9173D01*
G01X5325Y9111D01*
G01X5325Y8927D01*
G01X5344Y9348D02*
G01X5344Y9717D01*
G01X5100Y9852D02*
G01X5528Y9852D01*
G01X5100Y9852D02*
G01X5100Y10036D01*
G01X5119Y10098D01*
G01X5140Y10117D01*
G01X5180Y10138D01*
G01X5242Y10138D01*
G01X5284Y10117D01*
G01X5303Y10098D01*
G01X5325Y10036D01*
G01X5325Y9852D01*
G01X5100Y10273D02*
G01X5405Y10273D01*
G01X5467Y10294D01*
G01X5509Y10334D01*
G01X5528Y10396D01*
G01X5528Y10438D01*
G01X5509Y10498D01*
G01X5467Y10540D01*
G01X5405Y10559D01*
G01X5100Y10559D01*
G01X15681Y2994D02*
G01X15661Y3035D01*
G01X15600Y3096D01*
G01X16029Y3096D01*
G01X15600Y3231D02*
G01X16029Y3231D01*
G01X15600Y3231D02*
G01X16029Y3518D01*
G01X15600Y3518D02*
G01X16029Y3518D01*
G01X15600Y3857D02*
G01X15886Y3653D01*
G01X15886Y3959D01*
G01X15600Y3857D02*
G01X16029Y3857D01*
G01X15681Y4094D02*
G01X15661Y4135D01*
G01X15600Y4197D01*
G01X16029Y4197D01*
G01X15600Y4536D02*
G01X15886Y4332D01*
G01X15886Y4639D01*
G01X15600Y4536D02*
G01X16029Y4536D01*
G01X15600Y4876D02*
G01X15620Y4814D01*
G01X15661Y4794D01*
G01X15702Y4794D01*
G01X15743Y4814D01*
G01X15763Y4855D01*
G01X15784Y4937D01*
G01X15804Y4999D01*
G01X15845Y5039D01*
G01X15886Y5060D01*
G01X15947Y5060D01*
G01X15988Y5039D01*
G01X16009Y5019D01*
G01X16029Y4958D01*
G01X16029Y4876D01*
G01X16009Y4814D01*
G01X15988Y4794D01*
G01X15947Y4774D01*
G01X15886Y4774D01*
G01X15845Y4794D01*
G01X15804Y4835D01*
G01X15784Y4896D01*
G01X15763Y4978D01*
G01X15743Y5019D01*
G01X15702Y5039D01*
G01X15661Y5039D01*
G01X15620Y5019D01*
G01X15600Y4958D01*
G01X15600Y4876D01*
G01X55Y7059D02*
G01X484Y7059D01*
G01X484Y7059D02*
G01X484Y7304D01*
G01X157Y7746D02*
G01X115Y7726D01*
G01X75Y7686D01*
G01X55Y7644D01*
G01X55Y7563D01*
G01X75Y7521D01*
G01X115Y7480D01*
G01X157Y7461D01*
G01X217Y7440D01*
G01X319Y7440D01*
G01X382Y7461D01*
G01X423Y7480D01*
G01X463Y7521D01*
G01X484Y7563D01*
G01X484Y7644D01*
G01X463Y7686D01*
G01X423Y7726D01*
G01X382Y7746D01*
G01X55Y7881D02*
G01X484Y7881D01*
G01X55Y7881D02*
G01X55Y8025D01*
G01X75Y8086D01*
G01X115Y8127D01*
G01X157Y8148D01*
G01X217Y8169D01*
G01X319Y8169D01*
G01X382Y8148D01*
G01X423Y8127D01*
G01X463Y8086D01*
G01X484Y8025D01*
G01X484Y7881D01*
G01X16600Y12359D02*
G01X16600Y12053D01*
G01X16619Y11992D01*
G01X16660Y11950D01*
G01X16722Y11930D01*
G01X16764Y11930D01*
G01X16825Y11950D01*
G01X16865Y11992D01*
G01X16885Y12053D01*
G01X16885Y12359D01*
G01X17307Y12298D02*
G01X17267Y12340D01*
G01X17205Y12359D01*
G01X17123Y12359D01*
G01X17061Y12340D01*
G01X17021Y12298D01*
G01X17021Y12257D01*
G01X17042Y12217D01*
G01X17061Y12196D01*
G01X17102Y12175D01*
G01X17226Y12134D01*
G01X17267Y12115D01*
G01X17286Y12094D01*
G01X17307Y12053D01*
G01X17307Y11992D01*
G01X17267Y11950D01*
G01X17205Y11930D01*
G01X17123Y11930D01*
G01X17061Y11950D01*
G01X17021Y11992D01*
G01X17443Y12359D02*
G01X17443Y11930D01*
G01X17443Y12359D02*
G01X17627Y12359D01*
G01X17688Y12340D01*
G01X17709Y12319D01*
G01X17728Y12278D01*
G01X17728Y12238D01*
G01X17709Y12196D01*
G01X17688Y12175D01*
G01X17627Y12155D01*
G01X17443Y12155D02*
G01X17627Y12155D01*
G01X17688Y12134D01*
G01X17709Y12115D01*
G01X17728Y12073D01*
G01X17728Y12013D01*
G01X17709Y11971D01*
G01X17688Y11950D01*
G01X17627Y11930D01*
G01X17443Y11930D01*
G01X17864Y12115D02*
G01X18231Y12115D01*
G01X18367Y12359D02*
G01X18367Y12053D01*
G01X18388Y11992D01*
G01X18428Y11950D01*
G01X18489Y11930D01*
G01X18531Y11930D01*
G01X18592Y11950D01*
G01X18632Y11992D01*
G01X18653Y12053D01*
G01X18653Y12359D01*
G01X18952Y12359D02*
G01X18789Y11930D01*
G01X18952Y12359D02*
G01X19115Y11930D01*
G01X18850Y12073D02*
G01X19055Y12073D01*
G01X19251Y12359D02*
G01X19251Y11930D01*
G01X19251Y12359D02*
G01X19435Y12359D01*
G01X19496Y12340D01*
G01X19517Y12319D01*
G01X19536Y12278D01*
G01X19536Y12238D01*
G01X19517Y12196D01*
G01X19496Y12175D01*
G01X19435Y12155D01*
G01X19251Y12155D01*
G01X19393Y12155D02*
G01X19536Y11930D01*
G01X19814Y12359D02*
G01X19814Y11930D01*
G01X19672Y12359D02*
G01X19959Y12359D01*
G01X10435Y6959D02*
G01X10415Y7000D01*
G01X10355Y7061D01*
G01X10784Y7061D01*
G01X10415Y7442D02*
G01X10375Y7421D01*
G01X10355Y7360D01*
G01X10355Y7319D01*
G01X10375Y7258D01*
G01X10435Y7217D01*
G01X10539Y7196D01*
G01X10640Y7196D01*
G01X10722Y7217D01*
G01X10764Y7258D01*
G01X10784Y7319D01*
G01X10784Y7339D01*
G01X10764Y7401D01*
G01X10722Y7442D01*
G01X10660Y7462D01*
G01X10640Y7462D01*
G01X10580Y7442D01*
G01X10539Y7401D01*
G01X10518Y7339D01*
G01X10518Y7319D01*
G01X10539Y7258D01*
G01X10580Y7217D01*
G01X10640Y7196D01*
G01X10355Y7597D02*
G01X10784Y7597D01*
G01X10355Y7597D02*
G01X10784Y7761D01*
G01X10355Y7924D02*
G01X10784Y7761D01*
G01X10355Y7924D02*
G01X10784Y7924D01*
G01X10355Y8059D02*
G01X10784Y8059D01*
G01X10355Y8346D02*
G01X10784Y8346D01*
G01X10559Y8059D02*
G01X10559Y8346D01*
G01X10497Y8706D02*
G01X10784Y8481D01*
G01X10497Y8481D02*
G01X10497Y8706D01*
G01X10784Y8481D02*
G01X10784Y8706D01*
G54D29*
G01X14155Y3159D02*
G01X14584Y3159D01*
G01X14155Y3159D02*
G01X14155Y3344D01*
G01X14175Y3404D01*
G01X14194Y3425D01*
G01X14235Y3446D01*
G01X14277Y3446D01*
G01X14318Y3425D01*
G01X14339Y3404D01*
G01X14359Y3344D01*
G01X14359Y3159D01*
G01X14359Y3302D02*
G01X14584Y3446D01*
G01X14235Y3580D02*
G01X14215Y3621D01*
G01X14155Y3683D01*
G01X14584Y3683D01*
G54D28*
G01X14235Y4159D02*
G01X14215Y4200D01*
G01X14155Y4261D01*
G01X14584Y4261D01*
G01X14155Y4519D02*
G01X14175Y4458D01*
G01X14235Y4417D01*
G01X14339Y4396D01*
G01X14400Y4396D01*
G01X14502Y4417D01*
G01X14564Y4458D01*
G01X14584Y4519D01*
G01X14584Y4561D01*
G01X14564Y4621D01*
G01X14502Y4663D01*
G01X14400Y4683D01*
G01X14339Y4683D01*
G01X14235Y4663D01*
G01X14175Y4621D01*
G01X14155Y4561D01*
G01X14155Y4519D01*
G01X14155Y4819D02*
G01X14584Y4819D01*
G01X14297Y5023D02*
G01X14502Y4819D01*
G01X14419Y4900D02*
G01X14584Y5044D01*
G01X21400Y4604D02*
G01X21564Y4175D01*
G01X21727Y4604D02*
G01X21564Y4175D01*
G01X21861Y4604D02*
G01X21861Y4175D01*
G01X21861Y4604D02*
G01X22127Y4604D01*
G01X21861Y4400D02*
G01X22026Y4400D01*
G01X21861Y4175D02*
G01X22127Y4175D01*
G01X22550Y4544D02*
G01X22509Y4584D01*
G01X22447Y4604D01*
G01X22364Y4604D01*
G01X22303Y4584D01*
G01X22263Y4544D01*
G01X22263Y4502D01*
G01X22284Y4461D01*
G01X22303Y4442D01*
G01X22344Y4421D01*
G01X22468Y4379D01*
G01X22509Y4359D01*
G01X22528Y4340D01*
G01X22550Y4298D01*
G01X22550Y4236D01*
G01X22509Y4196D01*
G01X22447Y4175D01*
G01X22364Y4175D01*
G01X22303Y4196D01*
G01X22263Y4236D01*
G01X22990Y4502D02*
G01X22971Y4544D01*
G01X22930Y4584D01*
G01X22889Y4604D01*
G01X22806Y4604D01*
G01X22765Y4584D01*
G01X22725Y4544D01*
G01X22705Y4502D01*
G01X22685Y4442D01*
G01X22685Y4340D01*
G01X22705Y4277D01*
G01X22725Y4236D01*
G01X22765Y4196D01*
G01X22806Y4175D01*
G01X22889Y4175D01*
G01X22930Y4196D01*
G01X22971Y4236D01*
G01X22990Y4277D01*
G54D30*
G01X22767Y7850D02*
G01X22757Y7867D01*
G01X22731Y7894D01*
G01X22922Y7894D01*
G54D29*
G01X17806Y6502D02*
G01X17785Y6544D01*
G01X17744Y6584D01*
G01X17705Y6604D01*
G01X17622Y6604D01*
G01X17581Y6584D01*
G01X17540Y6544D01*
G01X17519Y6502D01*
G01X17500Y6442D01*
G01X17500Y6340D01*
G01X17519Y6277D01*
G01X17540Y6236D01*
G01X17581Y6196D01*
G01X17622Y6175D01*
G01X17705Y6175D01*
G01X17744Y6196D01*
G01X17785Y6236D01*
G01X17806Y6277D01*
G01X17982Y6604D02*
G01X18207Y6604D01*
G01X18085Y6442D01*
G01X18146Y6442D01*
G01X18186Y6421D01*
G01X18207Y6400D01*
G01X18227Y6340D01*
G01X18227Y6298D01*
G01X18207Y6236D01*
G01X18167Y6196D01*
G01X18105Y6175D01*
G01X18043Y6175D01*
G01X17982Y6196D01*
G01X17961Y6217D01*
G01X17942Y6257D01*
G54D28*
G01X18600Y6523D02*
G01X18640Y6544D01*
G01X18702Y6604D01*
G01X18702Y6175D01*
G01X18960Y6604D02*
G01X18898Y6584D01*
G01X18857Y6523D01*
G01X18836Y6421D01*
G01X18836Y6359D01*
G01X18857Y6257D01*
G01X18898Y6196D01*
G01X18960Y6175D01*
G01X19001Y6175D01*
G01X19061Y6196D01*
G01X19102Y6257D01*
G01X19123Y6359D01*
G01X19123Y6421D01*
G01X19102Y6523D01*
G01X19061Y6584D01*
G01X19001Y6604D01*
G01X18960Y6604D01*
G01X19381Y6604D02*
G01X19319Y6584D01*
G01X19278Y6523D01*
G01X19259Y6421D01*
G01X19259Y6359D01*
G01X19278Y6257D01*
G01X19319Y6196D01*
G01X19381Y6175D01*
G01X19422Y6175D01*
G01X19484Y6196D01*
G01X19525Y6257D01*
G01X19544Y6359D01*
G01X19544Y6421D01*
G01X19525Y6523D01*
G01X19484Y6584D01*
G01X19422Y6604D01*
G01X19381Y6604D01*
G01X19680Y6461D02*
G01X19680Y6175D01*
G01X19680Y6379D02*
G01X19740Y6442D01*
G01X19781Y6461D01*
G01X19843Y6461D01*
G01X19885Y6442D01*
G01X19905Y6379D01*
G01X19905Y6175D01*
G54D29*
G01X21700Y3404D02*
G01X21700Y2975D01*
G01X21700Y3404D02*
G01X21884Y3404D01*
G01X21944Y3384D01*
G01X21965Y3365D01*
G01X21985Y3323D01*
G01X21985Y3282D01*
G01X21965Y3242D01*
G01X21944Y3221D01*
G01X21884Y3200D01*
G01X21700Y3200D01*
G01X21843Y3200D02*
G01X21985Y2975D01*
G01X22142Y3302D02*
G01X22142Y3323D01*
G01X22161Y3365D01*
G01X22182Y3384D01*
G01X22223Y3404D01*
G01X22305Y3404D01*
G01X22346Y3384D01*
G01X22367Y3365D01*
G01X22386Y3323D01*
G01X22386Y3282D01*
G01X22367Y3242D01*
G01X22326Y3179D01*
G01X22121Y2975D01*
G01X22407Y2975D01*
G01X8907Y14158D02*
G01X8886Y14199D01*
G01X8844Y14240D01*
G01X8805Y14260D01*
G01X8723Y14260D01*
G01X8682Y14240D01*
G01X8640Y14199D01*
G01X8619Y14158D01*
G01X8600Y14097D01*
G01X8600Y13995D01*
G01X8619Y13933D01*
G01X8640Y13892D01*
G01X8682Y13851D01*
G01X8723Y13831D01*
G01X8805Y13831D01*
G01X8844Y13851D01*
G01X8886Y13892D01*
G01X8907Y13933D01*
G01X9246Y14260D02*
G01X9042Y13974D01*
G01X9348Y13974D01*
G01X9246Y14260D02*
G01X9246Y13831D01*
G54D28*
G01X11500Y14178D02*
G01X11540Y14198D01*
G01X11602Y14259D01*
G01X11602Y13830D01*
G01X11860Y14259D02*
G01X11798Y14240D01*
G01X11757Y14178D01*
G01X11736Y14075D01*
G01X11736Y14015D01*
G01X11757Y13913D01*
G01X11798Y13850D01*
G01X11860Y13830D01*
G01X11901Y13830D01*
G01X11961Y13850D01*
G01X12002Y13913D01*
G01X12023Y14015D01*
G01X12023Y14075D01*
G01X12002Y14178D01*
G01X11961Y14240D01*
G01X11901Y14259D01*
G01X11860Y14259D01*
G01X12281Y14259D02*
G01X12219Y14240D01*
G01X12178Y14178D01*
G01X12159Y14075D01*
G01X12159Y14015D01*
G01X12178Y13913D01*
G01X12219Y13850D01*
G01X12281Y13830D01*
G01X12322Y13830D01*
G01X12384Y13850D01*
G01X12425Y13913D01*
G01X12444Y14015D01*
G01X12444Y14075D01*
G01X12425Y14178D01*
G01X12384Y14240D01*
G01X12322Y14259D01*
G01X12281Y14259D01*
G01X12580Y14117D02*
G01X12580Y13913D01*
G01X12600Y13850D01*
G01X12640Y13830D01*
G01X12702Y13830D01*
G01X12743Y13850D01*
G01X12805Y13913D01*
G01X12805Y14117D02*
G01X12805Y13830D01*
G54D23*
G01X12172Y12232D02*
G01X12172Y12886D01*
G01X12500Y12559D02*
G01X11844Y12559D01*
G54D29*
G01X13606Y7902D02*
G01X13585Y7944D01*
G01X13544Y7984D01*
G01X13505Y8004D01*
G01X13422Y8004D01*
G01X13381Y7984D01*
G01X13340Y7944D01*
G01X13319Y7902D01*
G01X13300Y7842D01*
G01X13300Y7740D01*
G01X13319Y7677D01*
G01X13340Y7636D01*
G01X13381Y7596D01*
G01X13422Y7575D01*
G01X13505Y7575D01*
G01X13544Y7596D01*
G01X13585Y7636D01*
G01X13606Y7677D01*
G01X13742Y7923D02*
G01X13782Y7944D01*
G01X13843Y8004D01*
G01X13843Y7575D01*
G54D28*
G01X14419Y7902D02*
G01X14419Y7923D01*
G01X14440Y7965D01*
G01X14460Y7984D01*
G01X14502Y8004D01*
G01X14584Y8004D01*
G01X14625Y7984D01*
G01X14644Y7965D01*
G01X14665Y7923D01*
G01X14665Y7882D01*
G01X14644Y7842D01*
G01X14605Y7779D01*
G01X14400Y7575D01*
G01X14685Y7575D01*
G01X14943Y8004D02*
G01X14882Y7984D01*
G01X14842Y7923D01*
G01X14821Y7821D01*
G01X14821Y7759D01*
G01X14842Y7657D01*
G01X14882Y7596D01*
G01X14943Y7575D01*
G01X14985Y7575D01*
G01X15046Y7596D01*
G01X15086Y7657D01*
G01X15107Y7759D01*
G01X15107Y7821D01*
G01X15086Y7923D01*
G01X15046Y7984D01*
G01X14985Y8004D01*
G01X14943Y8004D01*
G01X15243Y7861D02*
G01X15243Y7432D01*
G01X15243Y7800D02*
G01X15284Y7842D01*
G01X15325Y7861D01*
G01X15385Y7861D01*
G01X15427Y7842D01*
G01X15468Y7800D01*
G01X15488Y7740D01*
G01X15488Y7698D01*
G01X15468Y7636D01*
G01X15427Y7596D01*
G01X15385Y7575D01*
G01X15325Y7575D01*
G01X15284Y7596D01*
G01X15243Y7636D01*
G54D29*
G01X13706Y9802D02*
G01X13685Y9844D01*
G01X13644Y9884D01*
G01X13605Y9904D01*
G01X13522Y9904D01*
G01X13481Y9884D01*
G01X13440Y9844D01*
G01X13419Y9802D01*
G01X13400Y9742D01*
G01X13400Y9640D01*
G01X13419Y9577D01*
G01X13440Y9536D01*
G01X13481Y9496D01*
G01X13522Y9475D01*
G01X13605Y9475D01*
G01X13644Y9496D01*
G01X13685Y9536D01*
G01X13706Y9577D01*
G01X13861Y9802D02*
G01X13861Y9823D01*
G01X13882Y9865D01*
G01X13902Y9884D01*
G01X13943Y9904D01*
G01X14026Y9904D01*
G01X14067Y9884D01*
G01X14086Y9865D01*
G01X14107Y9823D01*
G01X14107Y9782D01*
G01X14086Y9742D01*
G01X14046Y9679D01*
G01X13842Y9475D01*
G01X14127Y9475D01*
G54D28*
G01X14619Y9802D02*
G01X14619Y9823D01*
G01X14640Y9865D01*
G01X14660Y9884D01*
G01X14702Y9904D01*
G01X14784Y9904D01*
G01X14825Y9884D01*
G01X14844Y9865D01*
G01X14865Y9823D01*
G01X14865Y9782D01*
G01X14844Y9742D01*
G01X14805Y9679D01*
G01X14600Y9475D01*
G01X14885Y9475D01*
G01X15143Y9904D02*
G01X15082Y9884D01*
G01X15042Y9823D01*
G01X15021Y9721D01*
G01X15021Y9659D01*
G01X15042Y9557D01*
G01X15082Y9496D01*
G01X15143Y9475D01*
G01X15185Y9475D01*
G01X15246Y9496D01*
G01X15286Y9557D01*
G01X15307Y9659D01*
G01X15307Y9721D01*
G01X15286Y9823D01*
G01X15246Y9884D01*
G01X15185Y9904D01*
G01X15143Y9904D01*
G01X15443Y9761D02*
G01X15443Y9332D01*
G01X15443Y9700D02*
G01X15484Y9742D01*
G01X15525Y9761D01*
G01X15585Y9761D01*
G01X15627Y9742D01*
G01X15668Y9700D01*
G01X15688Y9640D01*
G01X15688Y9598D01*
G01X15668Y9536D01*
G01X15627Y9496D01*
G01X15585Y9475D01*
G01X15525Y9475D01*
G01X15484Y9496D01*
G01X15443Y9536D01*
G54D23*
G01X16772Y9832D02*
G01X16735Y9815D01*
G01X16700Y9777D01*
G01X16681Y9742D01*
G01X16681Y9669D01*
G01X16700Y9632D01*
G01X16735Y9596D01*
G01X16772Y9577D01*
G01X16827Y9559D01*
G01X16918Y9559D01*
G01X16972Y9577D01*
G01X17009Y9596D01*
G01X17044Y9632D01*
G01X17064Y9669D01*
G01X17064Y9742D01*
G01X17044Y9777D01*
G01X17009Y9815D01*
G01X16972Y9832D01*
G01X16918Y9832D01*
G01X16918Y9742D02*
G01X16918Y9832D01*
G01X16681Y9952D02*
G01X17064Y9952D01*
G01X16681Y9952D02*
G01X17064Y10206D01*
G01X16681Y10206D02*
G01X17064Y10206D01*
G01X16681Y10326D02*
G01X17064Y10326D01*
G01X16681Y10326D02*
G01X16681Y10454D01*
G01X16700Y10508D01*
G01X16735Y10544D01*
G01X16772Y10563D01*
G01X16827Y10581D01*
G01X16918Y10581D01*
G01X16972Y10563D01*
G01X17009Y10544D01*
G01X17044Y10508D01*
G01X17064Y10454D01*
G01X17064Y10326D01*
G01X17718Y9633D02*
G01X18045Y9633D01*
G01X17881Y9469D02*
G01X17881Y9797D01*
G01X17663Y10135D02*
G01X17663Y9953D01*
G01X17827Y9935D01*
G01X17808Y9953D01*
G01X17790Y10008D01*
G01X17790Y10062D01*
G01X17808Y10117D01*
G01X17845Y10153D01*
G01X17899Y10171D01*
G01X17936Y10171D01*
G01X17990Y10153D01*
G01X18027Y10117D01*
G01X18045Y10062D01*
G01X18045Y10008D01*
G01X18027Y9953D01*
G01X18008Y9935D01*
G01X17972Y9917D01*
G01X17663Y10291D02*
G01X18045Y10437D01*
G01X17663Y10582D02*
G01X18045Y10437D01*
G01X18663Y9704D02*
G01X19045Y9704D01*
G01X18663Y9577D02*
G01X18663Y9832D01*
G01X18663Y9952D02*
G01X19045Y10206D01*
G01X18663Y10206D02*
G01X19045Y9952D01*
G01X18663Y10326D02*
G01X19045Y10326D01*
G01X18663Y10326D02*
G01X18663Y10454D01*
G01X18681Y10508D01*
G01X18718Y10544D01*
G01X18754Y10563D01*
G01X18809Y10581D01*
G01X18900Y10581D01*
G01X18954Y10563D01*
G01X18990Y10544D01*
G01X19027Y10508D01*
G01X19045Y10454D01*
G01X19045Y10326D01*
G01X19663Y9578D02*
G01X20045Y9578D01*
G01X19663Y9578D02*
G01X19663Y9742D01*
G01X19682Y9797D01*
G01X19700Y9815D01*
G01X19736Y9833D01*
G01X19772Y9833D01*
G01X19809Y9815D01*
G01X19827Y9797D01*
G01X19845Y9742D01*
G01X19845Y9578D01*
G01X19845Y9706D02*
G01X20045Y9833D01*
G01X19663Y9953D02*
G01X20045Y10208D01*
G01X19663Y10208D02*
G01X20045Y9953D01*
G01X19663Y10328D02*
G01X20045Y10328D01*
G01X19663Y10328D02*
G01X19663Y10455D01*
G01X19682Y10509D01*
G01X19718Y10546D01*
G01X19754Y10564D01*
G01X19809Y10582D01*
G01X19900Y10582D01*
G01X19954Y10564D01*
G01X19991Y10546D01*
G01X20027Y10509D01*
G01X20045Y10455D01*
G01X20045Y10328D01*
G01X20664Y9578D02*
G01X21045Y9578D01*
G01X20664Y9578D02*
G01X20664Y9705D01*
G01X20682Y9761D01*
G01X20718Y9796D01*
G01X20754Y9815D01*
G01X20809Y9832D01*
G01X20900Y9832D01*
G01X20954Y9815D01*
G01X20991Y9796D01*
G01X21027Y9761D01*
G01X21045Y9705D01*
G01X21045Y9578D01*
G01X20664Y10080D02*
G01X21045Y10080D01*
G01X20664Y9952D02*
G01X20664Y10207D01*
G01X20664Y10327D02*
G01X21045Y10327D01*
G01X20664Y10327D02*
G01X20664Y10492D01*
G01X20682Y10546D01*
G01X20700Y10563D01*
G01X20736Y10581D01*
G01X20773Y10581D01*
G01X20809Y10563D01*
G01X20827Y10546D01*
G01X20845Y10492D01*
G01X20845Y10327D01*
G01X20845Y10454D02*
G01X21045Y10581D01*
G01X14700Y1677D02*
G01X14700Y1296D01*
G01X14700Y1677D02*
G01X14827Y1677D01*
G01X14881Y1659D01*
G01X14918Y1623D01*
G01X14935Y1586D01*
G01X14955Y1532D01*
G01X14955Y1442D01*
G01X14935Y1386D01*
G01X14918Y1350D01*
G01X14881Y1315D01*
G01X14827Y1296D01*
G01X14700Y1296D01*
G01X15219Y1677D02*
G01X15075Y1296D01*
G01X15219Y1677D02*
G01X15364Y1296D01*
G01X15128Y1423D02*
G01X15310Y1423D01*
G01X15485Y1677D02*
G01X15631Y1296D01*
G01X15776Y1677D02*
G01X15631Y1296D01*
G01X15896Y1677D02*
G01X15896Y1296D01*
G01X15896Y1677D02*
G01X16132Y1677D01*
G01X15896Y1496D02*
G01X16042Y1496D01*
G01X15896Y1296D02*
G01X16132Y1296D01*
G01X16471Y1550D02*
G01X16471Y1259D01*
G01X16452Y1204D01*
G01X16435Y1186D01*
G01X16397Y1169D01*
G01X16343Y1169D01*
G01X16306Y1186D01*
G01X16471Y1496D02*
G01X16435Y1532D01*
G01X16397Y1550D01*
G01X16343Y1550D01*
G01X16306Y1532D01*
G01X16271Y1496D01*
G01X16252Y1442D01*
G01X16252Y1404D01*
G01X16271Y1350D01*
G01X16306Y1315D01*
G01X16343Y1296D01*
G01X16397Y1296D01*
G01X16435Y1315D01*
G01X16471Y1350D01*
G01X16809Y1550D02*
G01X16809Y1296D01*
G01X16809Y1496D02*
G01X16772Y1532D01*
G01X16735Y1550D01*
G01X16681Y1550D01*
G01X16644Y1532D01*
G01X16609Y1496D01*
G01X16590Y1442D01*
G01X16590Y1404D01*
G01X16609Y1350D01*
G01X16644Y1315D01*
G01X16681Y1296D01*
G01X16735Y1296D01*
G01X16772Y1315D01*
G01X16809Y1350D01*
G01X17209Y1550D02*
G01X17318Y1296D01*
G01X17427Y1550D02*
G01X17318Y1296D01*
G01X17547Y1604D02*
G01X17584Y1623D01*
G01X17638Y1677D01*
G01X17638Y1296D01*
G01X17776Y1386D02*
G01X17757Y1369D01*
G01X17776Y1350D01*
G01X17794Y1369D01*
G01X17776Y1386D01*
G01X18023Y1677D02*
G01X17968Y1659D01*
G01X17932Y1604D01*
G01X17914Y1515D01*
G01X17914Y1459D01*
G01X17932Y1369D01*
G01X17968Y1315D01*
G01X18023Y1296D01*
G01X18060Y1296D01*
G01X18114Y1315D01*
G01X18151Y1369D01*
G01X18168Y1459D01*
G01X18168Y1515D01*
G01X18151Y1604D01*
G01X18114Y1659D01*
G01X18060Y1677D01*
G01X18023Y1677D01*
G01X18568Y1677D02*
G01X18568Y1296D01*
G01X18568Y1496D02*
G01X18605Y1532D01*
G01X18642Y1550D01*
G01X18696Y1550D01*
G01X18732Y1532D01*
G01X18768Y1496D01*
G01X18786Y1442D01*
G01X18786Y1404D01*
G01X18768Y1350D01*
G01X18732Y1315D01*
G01X18696Y1296D01*
G01X18642Y1296D01*
G01X18605Y1315D01*
G01X18568Y1350D01*
G01X18925Y1550D02*
G01X19035Y1296D01*
G01X19143Y1550D02*
G01X19035Y1296D01*
G01X18997Y1223D01*
G01X18961Y1186D01*
G01X18925Y1169D01*
G01X18906Y1169D01*
G01X19615Y1677D02*
G01X19635Y1659D01*
G01X19652Y1677D01*
G01X19635Y1696D01*
G01X19615Y1677D01*
G01X19635Y1550D02*
G01X19635Y1242D01*
G01X19615Y1186D01*
G01X19580Y1169D01*
G01X19543Y1169D01*
G01X19990Y1550D02*
G01X19990Y1296D01*
G01X19990Y1496D02*
G01X19955Y1532D01*
G01X19918Y1550D01*
G01X19864Y1550D01*
G01X19827Y1532D01*
G01X19790Y1496D01*
G01X19772Y1442D01*
G01X19772Y1404D01*
G01X19790Y1350D01*
G01X19827Y1315D01*
G01X19864Y1296D01*
G01X19918Y1296D01*
G01X19955Y1315D01*
G01X19990Y1350D01*
G01X20110Y1550D02*
G01X20110Y1296D01*
G01X20110Y1477D02*
G01X20164Y1532D01*
G01X20202Y1550D01*
G01X20256Y1550D01*
G01X20293Y1532D01*
G01X20310Y1477D01*
G01X20310Y1296D01*
G01X20431Y1550D02*
G01X20431Y1169D01*
G01X20431Y1496D02*
G01X20467Y1532D01*
G01X20503Y1550D01*
G01X20557Y1550D01*
G01X20594Y1532D01*
G01X20631Y1496D01*
G01X20648Y1442D01*
G01X20648Y1404D01*
G01X20631Y1350D01*
G01X20594Y1315D01*
G01X20557Y1296D01*
G01X20503Y1296D01*
G01X20467Y1315D01*
G01X20431Y1350D01*
G01X20860Y1550D02*
G01X20823Y1532D01*
G01X20786Y1496D01*
G01X20768Y1442D01*
G01X20768Y1404D01*
G01X20786Y1350D01*
G01X20823Y1315D01*
G01X20860Y1296D01*
G01X20914Y1296D01*
G01X20951Y1315D01*
G01X20986Y1350D01*
G01X21005Y1404D01*
G01X21005Y1442D01*
G01X20986Y1496D01*
G01X20951Y1532D01*
G01X20914Y1550D01*
G01X20860Y1550D01*
G01X21125Y1550D02*
G01X21125Y1296D01*
G01X21125Y1477D02*
G01X21180Y1532D01*
G01X21215Y1550D01*
G01X21271Y1550D01*
G01X21306Y1532D01*
G01X21325Y1477D01*
G01X21325Y1296D01*
G01X21325Y1477D02*
G01X21380Y1532D01*
G01X21415Y1550D01*
G01X21471Y1550D01*
G01X21506Y1532D01*
G01X21525Y1477D01*
G01X21525Y1296D01*
G01X14918Y750D02*
G01X14918Y459D01*
G01X14900Y404D01*
G01X14881Y386D01*
G01X14844Y369D01*
G01X14790Y369D01*
G01X14755Y386D01*
G01X14918Y696D02*
G01X14881Y732D01*
G01X14844Y750D01*
G01X14790Y750D01*
G01X14755Y732D01*
G01X14718Y696D01*
G01X14700Y642D01*
G01X14700Y604D01*
G01X14718Y550D01*
G01X14755Y515D01*
G01X14790Y496D01*
G01X14844Y496D01*
G01X14881Y515D01*
G01X14918Y550D01*
G01X15038Y877D02*
G01X15056Y859D01*
G01X15075Y877D01*
G01X15056Y896D01*
G01X15038Y877D01*
G01X15056Y750D02*
G01X15056Y496D01*
G01X15248Y877D02*
G01X15248Y569D01*
G01X15267Y515D01*
G01X15303Y496D01*
G01X15339Y496D01*
G01X15194Y750D02*
G01X15322Y750D01*
G01X15460Y877D02*
G01X15460Y496D01*
G01X15460Y677D02*
G01X15514Y732D01*
G01X15551Y750D01*
G01X15605Y750D01*
G01X15642Y732D01*
G01X15660Y677D01*
G01X15660Y496D01*
G01X15780Y750D02*
G01X15780Y569D01*
G01X15797Y515D01*
G01X15835Y496D01*
G01X15889Y496D01*
G01X15925Y515D01*
G01X15980Y569D01*
G01X15980Y750D02*
G01X15980Y496D01*
G01X16100Y877D02*
G01X16100Y496D01*
G01X16100Y696D02*
G01X16135Y732D01*
G01X16172Y750D01*
G01X16227Y750D01*
G01X16264Y732D01*
G01X16300Y696D01*
G01X16318Y642D01*
G01X16318Y604D01*
G01X16300Y550D01*
G01X16264Y515D01*
G01X16227Y496D01*
G01X16172Y496D01*
G01X16135Y515D01*
G01X16100Y550D01*
G01X16456Y586D02*
G01X16438Y569D01*
G01X16456Y550D01*
G01X16475Y569D01*
G01X16456Y586D01*
G01X16813Y696D02*
G01X16776Y732D01*
G01X16739Y750D01*
G01X16685Y750D01*
G01X16648Y732D01*
G01X16613Y696D01*
G01X16594Y642D01*
G01X16594Y604D01*
G01X16613Y550D01*
G01X16648Y515D01*
G01X16685Y496D01*
G01X16739Y496D01*
G01X16776Y515D01*
G01X16813Y550D01*
G01X17023Y750D02*
G01X16986Y732D01*
G01X16951Y696D01*
G01X16932Y642D01*
G01X16932Y604D01*
G01X16951Y550D01*
G01X16986Y515D01*
G01X17023Y496D01*
G01X17077Y496D01*
G01X17114Y515D01*
G01X17151Y550D01*
G01X17168Y604D01*
G01X17168Y642D01*
G01X17151Y696D01*
G01X17114Y732D01*
G01X17077Y750D01*
G01X17023Y750D01*
G01X17289Y750D02*
G01X17289Y496D01*
G01X17289Y677D02*
G01X17343Y732D01*
G01X17380Y750D01*
G01X17435Y750D01*
G01X17471Y732D01*
G01X17489Y677D01*
G01X17489Y496D01*
G01X17489Y677D02*
G01X17543Y732D01*
G01X17580Y750D01*
G01X17635Y750D01*
G01X17671Y732D01*
G01X17689Y677D01*
G01X17689Y496D01*
G01X18135Y950D02*
G01X17809Y369D01*
G01X18328Y877D02*
G01X18347Y859D01*
G01X18364Y877D01*
G01X18347Y896D01*
G01X18328Y877D01*
G01X18347Y750D02*
G01X18347Y442D01*
G01X18328Y386D01*
G01X18293Y369D01*
G01X18256Y369D01*
G01X18703Y750D02*
G01X18703Y496D01*
G01X18703Y696D02*
G01X18667Y732D01*
G01X18631Y750D01*
G01X18576Y750D01*
G01X18539Y732D01*
G01X18503Y696D01*
G01X18485Y642D01*
G01X18485Y604D01*
G01X18503Y550D01*
G01X18539Y515D01*
G01X18576Y496D01*
G01X18631Y496D01*
G01X18667Y515D01*
G01X18703Y550D01*
G01X18823Y750D02*
G01X18823Y496D01*
G01X18823Y677D02*
G01X18877Y732D01*
G01X18914Y750D01*
G01X18968Y750D01*
G01X19005Y732D01*
G01X19023Y677D01*
G01X19023Y496D01*
G01X19143Y750D02*
G01X19143Y369D01*
G01X19143Y696D02*
G01X19180Y732D01*
G01X19215Y750D01*
G01X19271Y750D01*
G01X19306Y732D01*
G01X19343Y696D01*
G01X19361Y642D01*
G01X19361Y604D01*
G01X19343Y550D01*
G01X19306Y515D01*
G01X19271Y496D01*
G01X19215Y496D01*
G01X19180Y515D01*
G01X19143Y550D01*
G01X19572Y750D02*
G01X19535Y732D01*
G01X19500Y696D01*
G01X19481Y642D01*
G01X19481Y604D01*
G01X19500Y550D01*
G01X19535Y515D01*
G01X19572Y496D01*
G01X19627Y496D01*
G01X19664Y515D01*
G01X19700Y550D01*
G01X19718Y604D01*
G01X19718Y642D01*
G01X19700Y696D01*
G01X19664Y732D01*
G01X19627Y750D01*
G01X19572Y750D01*
G01X19838Y750D02*
G01X19838Y496D01*
G01X19838Y677D02*
G01X19893Y732D01*
G01X19928Y750D01*
G01X19984Y750D01*
G01X20019Y732D01*
G01X20038Y677D01*
G01X20038Y496D01*
G01X20038Y677D02*
G01X20093Y732D01*
G01X20128Y750D01*
G01X20184Y750D01*
G01X20219Y732D01*
G01X20238Y677D01*
G01X20238Y496D01*
G01X20685Y950D02*
G01X20357Y369D01*
G01X21023Y877D02*
G01X21023Y496D01*
G01X21023Y696D02*
G01X20986Y732D01*
G01X20951Y750D01*
G01X20896Y750D01*
G01X20860Y732D01*
G01X20823Y696D01*
G01X20805Y642D01*
G01X20805Y604D01*
G01X20823Y550D01*
G01X20860Y515D01*
G01X20896Y496D01*
G01X20951Y496D01*
G01X20986Y515D01*
G01X21023Y550D01*
G01X21361Y750D02*
G01X21361Y496D01*
G01X21361Y696D02*
G01X21325Y732D01*
G01X21289Y750D01*
G01X21235Y750D01*
G01X21197Y732D01*
G01X21161Y696D01*
G01X21143Y642D01*
G01X21143Y604D01*
G01X21161Y550D01*
G01X21197Y515D01*
G01X21235Y496D01*
G01X21289Y496D01*
G01X21325Y515D01*
G01X21361Y550D01*
G01X21481Y750D02*
G01X21590Y496D01*
G01X21700Y750D02*
G01X21590Y496D01*
G01X21819Y642D02*
G01X22038Y642D01*
G01X22038Y677D01*
G01X22019Y715D01*
G01X22002Y732D01*
G01X21964Y750D01*
G01X21910Y750D01*
G01X21875Y732D01*
G01X21838Y696D01*
G01X21819Y642D01*
G01X21819Y604D01*
G01X21838Y550D01*
G01X21875Y515D01*
G01X21910Y496D01*
G01X21964Y496D01*
G01X22002Y515D01*
G01X22038Y550D01*
G01X22376Y750D02*
G01X22376Y459D01*
G01X22357Y404D01*
G01X22339Y386D01*
G01X22303Y369D01*
G01X22248Y369D01*
G01X22213Y386D01*
G01X22376Y696D02*
G01X22339Y732D01*
G01X22303Y750D01*
G01X22248Y750D01*
G01X22213Y732D01*
G01X22176Y696D01*
G01X22157Y642D01*
G01X22157Y604D01*
G01X22176Y550D01*
G01X22213Y515D01*
G01X22248Y496D01*
G01X22303Y496D01*
G01X22339Y515D01*
G01X22376Y550D01*
G01X22714Y750D02*
G01X22714Y496D01*
G01X22714Y696D02*
G01X22677Y732D01*
G01X22642Y750D01*
G01X22586Y750D01*
G01X22551Y732D01*
G01X22514Y696D01*
G01X22496Y642D01*
G01X22496Y604D01*
G01X22514Y550D01*
G01X22551Y515D01*
G01X22586Y496D01*
G01X22642Y496D01*
G01X22677Y515D01*
G01X22714Y550D01*
G01X8000Y1878D02*
G01X8000Y1496D01*
G01X8000Y1878D02*
G01X8164Y1878D01*
G01X8218Y1860D01*
G01X8236Y1842D01*
G01X8254Y1805D01*
G01X8254Y1769D01*
G01X8236Y1732D01*
G01X8218Y1714D01*
G01X8164Y1696D01*
G01X8000Y1696D02*
G01X8164Y1696D01*
G01X8218Y1678D01*
G01X8236Y1660D01*
G01X8254Y1623D01*
G01X8254Y1569D01*
G01X8236Y1532D01*
G01X8218Y1514D01*
G01X8164Y1496D01*
G01X8000Y1496D01*
G01X8502Y1878D02*
G01X8502Y1496D01*
G01X8374Y1878D02*
G01X8629Y1878D01*
G01X8749Y1878D02*
G01X8749Y1496D01*
G01X8749Y1878D02*
G01X9004Y1496D01*
G01X9004Y1878D02*
G01X9004Y1496D01*
G01X9124Y1805D02*
G01X9160Y1823D01*
G01X9214Y1878D01*
G01X9214Y1496D01*
G01X10300Y1878D02*
G01X10300Y1496D01*
G01X10300Y1878D02*
G01X10464Y1878D01*
G01X10518Y1859D01*
G01X10536Y1841D01*
G01X10554Y1805D01*
G01X10554Y1768D01*
G01X10536Y1732D01*
G01X10518Y1714D01*
G01X10464Y1696D01*
G01X10300Y1696D02*
G01X10464Y1696D01*
G01X10518Y1678D01*
G01X10536Y1659D01*
G01X10554Y1623D01*
G01X10554Y1568D01*
G01X10536Y1532D01*
G01X10518Y1514D01*
G01X10464Y1496D01*
G01X10300Y1496D01*
G01X10802Y1878D02*
G01X10802Y1496D01*
G01X10674Y1878D02*
G01X10929Y1878D01*
G01X11049Y1878D02*
G01X11049Y1496D01*
G01X11049Y1878D02*
G01X11304Y1496D01*
G01X11304Y1878D02*
G01X11304Y1496D01*
G01X11442Y1787D02*
G01X11442Y1805D01*
G01X11460Y1841D01*
G01X11478Y1859D01*
G01X11514Y1878D01*
G01X11587Y1878D01*
G01X11624Y1859D01*
G01X11642Y1841D01*
G01X11660Y1805D01*
G01X11660Y1768D01*
G01X11642Y1732D01*
G01X11605Y1678D01*
G01X11424Y1496D01*
G01X11678Y1496D01*
G01X12607Y1880D02*
G01X12607Y1498D01*
G01X12607Y1880D02*
G01X12771Y1880D01*
G01X12826Y1861D01*
G01X12843Y1844D01*
G01X12861Y1807D01*
G01X12861Y1771D01*
G01X12843Y1734D01*
G01X12826Y1717D01*
G01X12771Y1698D01*
G01X12607Y1698D02*
G01X12771Y1698D01*
G01X12826Y1680D01*
G01X12843Y1661D01*
G01X12861Y1625D01*
G01X12861Y1571D01*
G01X12843Y1534D01*
G01X12826Y1517D01*
G01X12771Y1498D01*
G01X12607Y1498D01*
G01X13109Y1880D02*
G01X13109Y1498D01*
G01X12981Y1880D02*
G01X13236Y1880D01*
G01X13356Y1880D02*
G01X13356Y1498D01*
G01X13356Y1880D02*
G01X13610Y1498D01*
G01X13610Y1880D02*
G01X13610Y1498D01*
G01X13768Y1880D02*
G01X13968Y1880D01*
G01X13857Y1734D01*
G01X13913Y1734D01*
G01X13948Y1717D01*
G01X13968Y1698D01*
G01X13985Y1644D01*
G01X13985Y1607D01*
G01X13968Y1552D01*
G01X13931Y1517D01*
G01X13877Y1498D01*
G01X13822Y1498D01*
G01X13768Y1517D01*
G01X13748Y1534D01*
G01X13731Y1571D01*
G01X20617Y8178D02*
G01X20435Y8178D01*
G01X20417Y8014D01*
G01X20435Y8033D01*
G01X20490Y8051D01*
G01X20545Y8051D01*
G01X20599Y8033D01*
G01X20635Y7996D01*
G01X20654Y7942D01*
G01X20654Y7905D01*
G01X20635Y7851D01*
G01X20599Y7814D01*
G01X20545Y7796D01*
G01X20490Y7796D01*
G01X20435Y7814D01*
G01X20417Y7833D01*
G01X20399Y7869D01*
G01X20774Y8178D02*
G01X20919Y7796D01*
G01X21065Y8178D02*
G01X20919Y7796D01*
G01X20372Y7286D02*
G01X20355Y7323D01*
G01X20318Y7359D01*
G01X20281Y7377D01*
G01X20209Y7377D01*
G01X20172Y7359D01*
G01X20135Y7323D01*
G01X20118Y7286D01*
G01X20100Y7232D01*
G01X20100Y7141D01*
G01X20118Y7086D01*
G01X20135Y7050D01*
G01X20172Y7014D01*
G01X20209Y6995D01*
G01X20281Y6995D01*
G01X20318Y7014D01*
G01X20355Y7050D01*
G01X20372Y7086D01*
G01X20372Y7141D01*
G01X20281Y7141D02*
G01X20372Y7141D01*
G01X20493Y7377D02*
G01X20493Y6995D01*
G01X20493Y7377D02*
G01X20747Y6995D01*
G01X20747Y7377D02*
G01X20747Y6995D01*
G01X20867Y7377D02*
G01X20867Y6995D01*
G01X20867Y7377D02*
G01X20994Y7377D01*
G01X21048Y7359D01*
G01X21085Y7323D01*
G01X21103Y7286D01*
G01X21122Y7232D01*
G01X21122Y7141D01*
G01X21103Y7086D01*
G01X21085Y7050D01*
G01X21048Y7014D01*
G01X20994Y6995D01*
G01X20867Y6995D01*
G01X20399Y6578D02*
G01X20399Y6196D01*
G01X20399Y6578D02*
G01X20563Y6578D01*
G01X20617Y6559D01*
G01X20635Y6541D01*
G01X20654Y6505D01*
G01X20654Y6469D01*
G01X20635Y6432D01*
G01X20617Y6414D01*
G01X20563Y6396D01*
G01X20399Y6396D01*
G01X20526Y6396D02*
G01X20654Y6196D01*
G01X20774Y6578D02*
G01X21028Y6196D01*
G01X21028Y6578D02*
G01X20774Y6196D01*
G01X20527Y5778D02*
G01X20527Y5396D01*
G01X20400Y5778D02*
G01X20654Y5778D01*
G01X20774Y5778D02*
G01X21029Y5396D01*
G01X21029Y5778D02*
G01X20774Y5396D01*
G01X1799Y2777D02*
G01X1945Y2395D01*
G01X2090Y2777D02*
G01X1945Y2395D01*
G01X2483Y2686D02*
G01X2465Y2723D01*
G01X2428Y2759D01*
G01X2392Y2777D01*
G01X2319Y2777D01*
G01X2283Y2759D01*
G01X2247Y2723D01*
G01X2228Y2686D01*
G01X2210Y2632D01*
G01X2210Y2541D01*
G01X2228Y2486D01*
G01X2247Y2450D01*
G01X2283Y2414D01*
G01X2319Y2395D01*
G01X2392Y2395D01*
G01X2428Y2414D01*
G01X2465Y2450D01*
G01X2483Y2486D01*
G01X2876Y2686D02*
G01X2858Y2723D01*
G01X2821Y2759D01*
G01X2785Y2777D01*
G01X2712Y2777D01*
G01X2676Y2759D01*
G01X2639Y2723D01*
G01X2621Y2686D01*
G01X2603Y2632D01*
G01X2603Y2541D01*
G01X2621Y2486D01*
G01X2639Y2450D01*
G01X2676Y2414D01*
G01X2712Y2395D01*
G01X2785Y2395D01*
G01X2821Y2414D01*
G01X2858Y2450D01*
G01X2876Y2486D01*
G01X2072Y3687D02*
G01X2054Y3723D01*
G01X2018Y3759D01*
G01X1982Y3777D01*
G01X1909Y3777D01*
G01X1872Y3759D01*
G01X1836Y3723D01*
G01X1818Y3687D01*
G01X1800Y3632D01*
G01X1800Y3541D01*
G01X1818Y3487D01*
G01X1836Y3450D01*
G01X1872Y3414D01*
G01X1909Y3396D01*
G01X1982Y3396D01*
G01X2018Y3414D01*
G01X2054Y3450D01*
G01X2072Y3487D01*
G01X2072Y3541D01*
G01X1982Y3541D02*
G01X2072Y3541D01*
G01X2192Y3777D02*
G01X2192Y3396D01*
G01X2192Y3777D02*
G01X2447Y3396D01*
G01X2447Y3777D02*
G01X2447Y3396D01*
G01X2567Y3777D02*
G01X2567Y3396D01*
G01X2567Y3777D02*
G01X2694Y3777D01*
G01X2749Y3759D01*
G01X2785Y3723D01*
G01X2803Y3687D01*
G01X2822Y3632D01*
G01X2822Y3541D01*
G01X2803Y3487D01*
G01X2785Y3450D01*
G01X2749Y3414D01*
G01X2694Y3396D01*
G01X2567Y3396D01*
G01X2072Y4687D02*
G01X2054Y4723D01*
G01X2018Y4759D01*
G01X1982Y4777D01*
G01X1909Y4777D01*
G01X1872Y4759D01*
G01X1836Y4723D01*
G01X1818Y4687D01*
G01X1800Y4632D01*
G01X1800Y4541D01*
G01X1818Y4487D01*
G01X1836Y4450D01*
G01X1872Y4414D01*
G01X1909Y4396D01*
G01X1982Y4396D01*
G01X2018Y4414D01*
G01X2054Y4450D01*
G01X2072Y4487D01*
G01X2072Y4541D01*
G01X1982Y4541D02*
G01X2072Y4541D01*
G01X2192Y4777D02*
G01X2192Y4396D01*
G01X2192Y4777D02*
G01X2447Y4396D01*
G01X2447Y4777D02*
G01X2447Y4396D01*
G01X2567Y4777D02*
G01X2567Y4396D01*
G01X2567Y4777D02*
G01X2694Y4777D01*
G01X2749Y4759D01*
G01X2785Y4723D01*
G01X2803Y4687D01*
G01X2822Y4632D01*
G01X2822Y4541D01*
G01X2803Y4487D01*
G01X2785Y4450D01*
G01X2749Y4414D01*
G01X2694Y4396D01*
G01X2567Y4396D01*
G01X2073Y8686D02*
G01X2055Y8723D01*
G01X2017Y8759D01*
G01X1982Y8777D01*
G01X1909Y8777D01*
G01X1873Y8759D01*
G01X1836Y8723D01*
G01X1817Y8686D01*
G01X1800Y8632D01*
G01X1800Y8542D01*
G01X1817Y8486D01*
G01X1836Y8450D01*
G01X1873Y8415D01*
G01X1909Y8396D01*
G01X1982Y8396D01*
G01X2017Y8415D01*
G01X2055Y8450D01*
G01X2073Y8486D01*
G01X2192Y8777D02*
G01X2192Y8396D01*
G01X2192Y8396D02*
G01X2411Y8396D01*
G01X2530Y8777D02*
G01X2530Y8396D01*
G01X2784Y8777D02*
G01X2530Y8523D01*
G01X2621Y8615D02*
G01X2784Y8396D01*
G01X2054Y9723D02*
G01X2018Y9759D01*
G01X1963Y9778D01*
G01X1890Y9778D01*
G01X1836Y9759D01*
G01X1799Y9723D01*
G01X1799Y9687D01*
G01X1818Y9650D01*
G01X1836Y9632D01*
G01X1872Y9614D01*
G01X1981Y9578D01*
G01X2018Y9559D01*
G01X2036Y9541D01*
G01X2054Y9505D01*
G01X2054Y9450D01*
G01X2018Y9414D01*
G01X1963Y9396D01*
G01X1890Y9396D01*
G01X1836Y9414D01*
G01X1799Y9450D01*
G01X2174Y9778D02*
G01X2174Y9396D01*
G01X2174Y9778D02*
G01X2301Y9778D01*
G01X2356Y9759D01*
G01X2392Y9723D01*
G01X2410Y9687D01*
G01X2429Y9632D01*
G01X2429Y9541D01*
G01X2410Y9487D01*
G01X2392Y9450D01*
G01X2356Y9414D01*
G01X2301Y9396D01*
G01X2174Y9396D01*
G01X2694Y9778D02*
G01X2549Y9396D01*
G01X2694Y9778D02*
G01X2839Y9396D01*
G01X2603Y9523D02*
G01X2785Y9523D01*
G01X1800Y10778D02*
G01X1800Y10396D01*
G01X1800Y10778D02*
G01X1963Y10778D01*
G01X2017Y10759D01*
G01X2036Y10741D01*
G01X2055Y10705D01*
G01X2055Y10669D01*
G01X2036Y10632D01*
G01X2017Y10614D01*
G01X1963Y10596D01*
G01X1800Y10596D01*
G01X1926Y10596D02*
G01X2055Y10396D01*
G01X2428Y10723D02*
G01X2392Y10759D01*
G01X2338Y10778D01*
G01X2265Y10778D01*
G01X2211Y10759D01*
G01X2175Y10723D01*
G01X2175Y10687D01*
G01X2192Y10650D01*
G01X2211Y10632D01*
G01X2246Y10614D01*
G01X2355Y10578D01*
G01X2392Y10559D01*
G01X2411Y10541D01*
G01X2428Y10505D01*
G01X2428Y10450D01*
G01X2392Y10414D01*
G01X2338Y10396D01*
G01X2265Y10396D01*
G01X2211Y10414D01*
G01X2175Y10450D01*
G01X1799Y11781D02*
G01X1799Y11400D01*
G01X1799Y11781D02*
G01X1963Y11781D01*
G01X2017Y11763D01*
G01X2036Y11746D01*
G01X2054Y11709D01*
G01X2054Y11673D01*
G01X2036Y11636D01*
G01X2017Y11619D01*
G01X1963Y11600D01*
G01X1799Y11600D01*
G01X1927Y11600D02*
G01X2054Y11400D01*
G01X2428Y11727D02*
G01X2392Y11763D01*
G01X2337Y11781D01*
G01X2265Y11781D01*
G01X2210Y11763D01*
G01X2174Y11727D01*
G01X2174Y11690D01*
G01X2192Y11654D01*
G01X2210Y11636D01*
G01X2247Y11619D01*
G01X2356Y11581D01*
G01X2392Y11563D01*
G01X2410Y11546D01*
G01X2428Y11509D01*
G01X2428Y11454D01*
G01X2392Y11419D01*
G01X2337Y11400D01*
G01X2265Y11400D01*
G01X2210Y11419D01*
G01X2174Y11454D01*
G01X2676Y11781D02*
G01X2676Y11400D01*
G01X2548Y11781D02*
G01X2803Y11781D01*
G01X2071Y12663D02*
G01X2053Y12698D01*
G01X2017Y12734D01*
G01X1981Y12753D01*
G01X1908Y12753D01*
G01X1871Y12734D01*
G01X1835Y12698D01*
G01X1817Y12663D01*
G01X1799Y12607D01*
G01X1799Y12517D01*
G01X1817Y12463D01*
G01X1835Y12425D01*
G01X1871Y12390D01*
G01X1908Y12371D01*
G01X1981Y12371D01*
G01X2017Y12390D01*
G01X2053Y12425D01*
G01X2071Y12463D01*
G01X2446Y12698D02*
G01X2410Y12734D01*
G01X2355Y12753D01*
G01X2282Y12753D01*
G01X2228Y12734D01*
G01X2191Y12698D01*
G01X2191Y12663D01*
G01X2210Y12625D01*
G01X2228Y12607D01*
G01X2264Y12590D01*
G01X2373Y12553D01*
G01X2410Y12534D01*
G01X2428Y12517D01*
G01X2446Y12480D01*
G01X2446Y12425D01*
G01X2410Y12390D01*
G01X2355Y12371D01*
G01X2282Y12371D01*
G01X2228Y12390D01*
G01X2191Y12425D01*
G01X18200Y3477D02*
G01X18200Y3095D01*
G01X18200Y3095D02*
G01X18418Y3095D01*
G01X18538Y3477D02*
G01X18538Y3095D01*
G01X18538Y3477D02*
G01X18775Y3477D01*
G01X18538Y3295D02*
G01X18684Y3295D01*
G01X18538Y3095D02*
G01X18775Y3095D01*
G01X18894Y3477D02*
G01X18894Y3095D01*
G01X18894Y3477D02*
G01X19022Y3477D01*
G01X19076Y3459D01*
G01X19113Y3423D01*
G01X19131Y3386D01*
G01X19148Y3332D01*
G01X19148Y3241D01*
G01X19131Y3186D01*
G01X19113Y3150D01*
G01X19076Y3114D01*
G01X19022Y3095D01*
G01X18894Y3095D01*
G01X17764Y3423D02*
G01X17764Y3096D01*
G01X17600Y3259D02*
G01X17927Y3259D01*
G01X19400Y3259D02*
G01X19727Y3259D01*
G54D26*
G75*
G01X5950Y867D02*
G3X5948Y867I-1J118D01*
G01*
G54D10*
G75*
G01X5550Y591D02*
G3X5050Y591I-250J0D01*
G01*
G54D27*
G75*
G01X6796Y497D02*
G3X6795Y497I-1J59D01*
G01*
G54D10*
G75*
G01X12785Y9135D02*
G3X11015Y9135I-885J0D01*
G01*
G75*
G01X11015Y6655D02*
G3X12785Y6655I885J0D01*
G01*
M00*
M02*
