;PTH Drill file created by EasyEDA 
M48
INCH,LZ,00.0000
;Holesize 1 = 0.028 INCH
T01C0.028
;Holesize 2 = 0.028 INCH
T02C0.028
;Holesize 3 = 0.031 INCH
T03C0.031
;Holesize 4 = 0.032 INCH
T04C0.032
;Holesize 5 = 0.035 INCH
T05C0.035
;Holesize 6 = 0.035 INCH
T06C0.035
;Holesize 7 = 0.035 INCH
T07C0.035
;Holesize 8 = 0.036 INCH
T08C0.036
;Holesize 9 = 0.039 INCH
T09C0.039
%
G05
G90
T01
X+011900Y+008860
X+011900Y+006930
T02
X+018189Y+005529
X+019189Y+005529
X+013989Y+006929
X+014789Y+006929
X+013989Y+008829
X+014789Y+008829
T03
X+012789Y+000959
X+013789Y+000959
X+011489Y+000959
X+008190Y+000959
X+009189Y+000959
X+010489Y+000959
X+018189Y+002559
X+019189Y+002559
T04
X+022180Y+005569
X+022180Y+006359
X+022180Y+007150
X+022180Y+007929
T05
X+001100Y+011559
X+001100Y+010559
X+001100Y+009559
X+001100Y+008559
X+001100Y+007559
X+001100Y+006559
X+001100Y+005559
X+001100Y+004559
X+001100Y+003559
X+001100Y+002559
X+001096Y+012565
X+015900Y+011259
X+016900Y+011259
X+017900Y+011259
X+018900Y+011259
X+019900Y+011259
X+020900Y+011259
T06
X+015000Y+002559
X+015000Y+005559
X+023500Y+002559
X+020500Y+002559
T07
X+003800Y+014059
X+003800Y+013059
X+003800Y+012059
X+003800Y+011059
X+003800Y+010059
X+003800Y+009059
X+003800Y+008059
X+003800Y+007059
X+003800Y+006059
X+003800Y+005059
X+003800Y+004059
X+003800Y+003059
X+003800Y+002059
X+003800Y+001059
X+006800Y+014059
X+006800Y+013059
X+006800Y+012059
X+006800Y+011059
X+006800Y+010059
X+006800Y+009059
X+006800Y+008059
X+006800Y+007059
X+006800Y+006059
X+006800Y+005059
X+006800Y+004059
X+006800Y+003059
X+006800Y+002059
X+006800Y+001059
T08
X+013800Y+012559
X+007800Y+012559
T09
X+016600Y+002559
X+016600Y+005559
M30
