G04 ---------------------------- Layer name :TOP LAYER*
G04 EasyEDA v5.8.22, Fri, 28 Dec 2018 22:43:13 GMT*
G04 4aab34f19f4e443da7e81b0ac1b812b4*
G04 Gerber Generator version 0.2*
G04 Scale: 100 percent, Rotated: No, Reflected: No *
G04 Dimensions in inches *
G04 leading zeros omitted , absolute positions ,2 integer and 4 decimal *
%FSLAX24Y24*%
%MOIN*%
G90*
G70D02*

%ADD10C,0.010000*%
%ADD11C,0.059055*%
%ADD12R,0.059055X0.059055*%
%ADD13C,0.062992*%
%ADD14C,0.062000*%
%ADD15R,0.062000X0.062000*%
%ADD16R,0.051200X0.059100*%
%ADD17C,0.074000*%
%ADD18R,0.085000X0.047200*%
%ADD19C,0.047000*%
%ADD20R,0.051200X0.051200*%
%ADD21C,0.060000*%
%ADD22C,0.047008*%

%LPD*%
G54D10*
G01X1100Y8559D02*
G01X2300Y8559D01*
G01X3800Y10059D01*
G01X1100Y9559D02*
G01X1300Y9559D01*
G01X3800Y12059D01*
G01X1100Y10559D02*
G01X1500Y10559D01*
G01X2200Y11259D01*
G01X2200Y12459D01*
G01X3800Y14059D01*
G01X1100Y2559D02*
G01X1500Y2559D01*
G01X2200Y3259D01*
G01X2200Y7459D01*
G01X3800Y9059D01*
G01X3800Y9059D02*
G01X4800Y9059D01*
G01X6800Y7059D01*
G01X9189Y959D02*
G01X9200Y959D01*
G01X10100Y1859D01*
G01X12889Y1859D01*
G01X13789Y959D01*
G01X11489Y959D02*
G01X11489Y1832D01*
G01X11464Y1859D01*
G01X6800Y10059D02*
G01X10700Y10059D01*
G01X11900Y8859D01*
G01X6800Y9059D02*
G01X9771Y9059D01*
G01X11900Y6930D01*
G01X11900Y8859D02*
G01X13960Y8859D01*
G01X13989Y8829D01*
G01X11900Y6930D02*
G01X13989Y6930D01*
G01X13989Y6929D01*
G01X22180Y7150D02*
G01X21010Y7150D01*
G01X16900Y11259D01*
G01X22180Y7929D02*
G01X21230Y7929D01*
G01X17900Y11259D01*
G01X22180Y6359D02*
G01X22600Y6359D01*
G01X23300Y7059D01*
G01X23300Y11059D01*
G01X22100Y12259D01*
G01X20400Y12259D01*
G01X19900Y11759D01*
G01X19900Y11259D01*
G01X22180Y5569D02*
G01X22610Y5569D01*
G01X23800Y6759D01*
G01X23800Y11259D01*
G01X22300Y12759D01*
G01X19400Y12759D01*
G01X18900Y12259D01*
G01X18900Y11259D01*
G01X15000Y2559D02*
G01X16600Y2559D01*
G01X6800Y1059D02*
G01X8000Y2259D01*
G01X14700Y2259D01*
G01X15000Y2559D01*
G01X6800Y2059D02*
G01X6900Y2059D01*
G01X8700Y3859D01*
G01X20469Y3859D01*
G01X22180Y5569D01*
G01X6800Y3059D02*
G01X8100Y4359D01*
G01X19400Y4359D01*
G01X21300Y6259D01*
G01X22080Y6259D01*
G01X22180Y6359D01*
G01X15000Y5559D02*
G01X8300Y5559D01*
G01X6800Y7059D01*
G01X15000Y5559D02*
G01X16600Y5559D01*
G01X19189Y2559D02*
G01X20500Y2559D01*
G01X17900Y11259D02*
G01X17900Y11959D01*
G01X17300Y12559D01*
G01X13800Y12559D01*
G01X6800Y8059D02*
G01X8600Y6259D01*
G01X14119Y6259D01*
G01X14789Y6929D01*
G01X14789Y6929D02*
G01X14789Y8829D01*
G01X14789Y8829D02*
G01X14789Y9150D01*
G01X16900Y11259D01*
G54D11*
G01X3800Y14059D03*
G01X3800Y13059D03*
G01X3800Y12059D03*
G01X3800Y11059D03*
G01X3800Y10059D03*
G01X3800Y9059D03*
G01X3800Y8059D03*
G01X3800Y7059D03*
G01X3800Y6059D03*
G01X3800Y5059D03*
G01X3800Y4059D03*
G01X3800Y3059D03*
G01X3800Y2059D03*
G01X3800Y1059D03*
G01X6800Y14059D03*
G01X6800Y13059D03*
G01X6800Y12059D03*
G01X6800Y11059D03*
G01X6800Y10059D03*
G01X6800Y9059D03*
G01X6800Y8059D03*
G01X6800Y7059D03*
G01X6800Y6059D03*
G01X6800Y5059D03*
G01X6800Y4059D03*
G01X6800Y3059D03*
G01X6800Y2059D03*
G54D12*
G01X6800Y1059D03*
G54D13*
G01X16600Y2559D03*
G01X16600Y5559D03*
G54D14*
G01X1100Y11559D03*
G01X1100Y10559D03*
G01X1100Y9559D03*
G01X1100Y8559D03*
G01X1100Y7559D03*
G01X1100Y6559D03*
G01X1100Y5559D03*
G01X1100Y4559D03*
G01X1100Y3559D03*
G54D15*
G01X1100Y2559D03*
G54D14*
G01X1096Y12565D03*
G54D16*
G01X12789Y959D03*
G01X13789Y959D03*
G01X11489Y959D03*
G01X8190Y959D03*
G01X9189Y959D03*
G01X10489Y959D03*
G54D14*
G01X15900Y11259D03*
G01X16900Y11259D03*
G01X17900Y11259D03*
G01X18900Y11259D03*
G01X19900Y11259D03*
G54D15*
G01X20900Y11259D03*
G54D13*
G01X11900Y8860D03*
G01X11900Y6930D03*
G54D17*
G01X15000Y2559D03*
G01X15000Y5559D03*
G54D18*
G01X22180Y5569D03*
G01X22180Y6359D03*
G01X22180Y7150D03*
G01X22180Y7929D03*
G54D19*
G01X18189Y5529D03*
G01X19189Y5529D03*
G54D16*
G01X18189Y2559D03*
G54D20*
G01X19189Y2559D03*
G54D17*
G01X23500Y2559D03*
G01X20500Y2559D03*
G54D21*
G01X13800Y12559D03*
G01X7800Y12559D03*
G54D22*
G01X13989Y6929D03*
G01X14789Y6929D03*
G01X13989Y8829D03*
G01X14789Y8829D03*
M00*
M02*
