G04 ---------------------------- Layer name :TOP LAYER*
G04 EasyEDA v5.8.20, Tue, 30 Oct 2018 19:36:29 GMT*
G04 3de5ce89690c44bd899ddc5bcfd3a5cc*
G04 Gerber Generator version 0.2*
G04 Scale: 100 percent, Rotated: No, Reflected: No *
G04 Dimensions in inches *
G04 leading zeros omitted , absolute positions ,2 integer and 4 decimal *
%FSLAX24Y24*%
%MOIN*%
G90*
G70D02*

%ADD10C,0.010000*%
%ADD11C,0.059055*%
%ADD12R,0.059055X0.059055*%
%ADD13C,0.062992*%
%ADD14C,0.062000*%
%ADD15R,0.062000X0.062000*%
%ADD16R,0.051200X0.059100*%
%ADD17C,0.047000*%
%ADD18C,0.074000*%
%ADD19R,0.085000X0.047200*%
%ADD20R,0.047200X0.085000*%

%LPD*%
G54D10*
G01X1100Y8559D02*
G01X2300Y8559D01*
G01X3800Y10059D01*
G01X1100Y9559D02*
G01X1300Y9559D01*
G01X3800Y12059D01*
G01X1100Y10559D02*
G01X1500Y10559D01*
G01X2200Y11259D01*
G01X2200Y12459D01*
G01X3800Y14059D01*
G01X1100Y2559D02*
G01X1500Y2559D01*
G01X2200Y3259D01*
G01X2200Y7459D01*
G01X3800Y9059D01*
G01X3800Y9059D02*
G01X4800Y9059D01*
G01X6800Y7059D01*
G01X9389Y959D02*
G01X9400Y959D01*
G01X10300Y1859D01*
G01X13089Y1859D01*
G01X13989Y959D01*
G01X11689Y959D02*
G01X11689Y1833D01*
G01X11663Y1859D01*
G01X6800Y12059D02*
G01X7100Y12059D01*
G01X7500Y11659D01*
G01X10100Y11659D01*
G01X10500Y12059D01*
G01X10500Y12740D01*
G01X6800Y11059D02*
G01X10900Y11059D01*
G01X11300Y11459D01*
G01X11300Y12729D01*
G01X11289Y12740D01*
G01X6800Y10059D02*
G01X10700Y10059D01*
G01X11900Y8860D01*
G01X6800Y9059D02*
G01X9770Y9059D01*
G01X11900Y6930D01*
G01X11900Y8860D02*
G01X13959Y8860D01*
G01X13989Y8830D01*
G01X11900Y6930D02*
G01X13989Y6930D01*
G01X13989Y6930D01*
G01X14989Y6930D02*
G01X14989Y8830D01*
G01X14989Y8830D02*
G01X14989Y9350D01*
G01X16900Y11259D01*
G01X22180Y7150D02*
G01X21010Y7150D01*
G01X16900Y11259D01*
G01X22180Y7929D02*
G01X21230Y7929D01*
G01X17900Y11259D01*
G01X22180Y6359D02*
G01X22600Y6359D01*
G01X23300Y7059D01*
G01X23300Y11059D01*
G01X22100Y12259D01*
G01X20400Y12259D01*
G01X19900Y11759D01*
G01X19900Y11259D01*
G01X22180Y5569D02*
G01X22610Y5569D01*
G01X23800Y6759D01*
G01X23800Y11259D01*
G01X22300Y12759D01*
G01X19400Y12759D01*
G01X18900Y12259D01*
G01X18900Y11259D01*
G01X15000Y2559D02*
G01X16600Y2559D01*
G01X6800Y1059D02*
G01X8000Y2259D01*
G01X14700Y2259D01*
G01X15000Y2559D01*
G01X6800Y2059D02*
G01X6900Y2059D01*
G01X8700Y3859D01*
G01X20469Y3859D01*
G01X22180Y5569D01*
G01X6800Y3059D02*
G01X8100Y4359D01*
G01X19400Y4359D01*
G01X21300Y6259D01*
G01X22080Y6259D01*
G01X22180Y6359D01*
G01X15000Y5559D02*
G01X8300Y5559D01*
G01X6800Y7059D01*
G01X15000Y5559D02*
G01X16600Y5559D01*
G01X9710Y12740D02*
G01X9710Y13269D01*
G01X10100Y13659D01*
G01X14500Y13659D01*
G01X16900Y11259D01*
G01X8930Y12740D02*
G01X8930Y13390D01*
G01X9600Y14059D01*
G01X15100Y14059D01*
G01X17900Y11259D01*
G01X14989Y6930D02*
G01X14970Y6930D01*
G01X14100Y6059D01*
G01X8800Y6059D01*
G01X6800Y8059D01*
G54D11*
G01X3800Y14059D03*
G01X3800Y13059D03*
G01X3800Y12059D03*
G01X3800Y11059D03*
G01X3800Y10059D03*
G01X3800Y9059D03*
G01X3800Y8059D03*
G01X3800Y7059D03*
G01X3800Y6059D03*
G01X3800Y5059D03*
G01X3800Y4059D03*
G01X3800Y3059D03*
G01X3800Y2059D03*
G01X3800Y1059D03*
G01X6800Y14059D03*
G01X6800Y13059D03*
G01X6800Y12059D03*
G01X6800Y11059D03*
G01X6800Y10059D03*
G01X6800Y9059D03*
G01X6800Y8059D03*
G01X6800Y7059D03*
G01X6800Y6059D03*
G01X6800Y5059D03*
G01X6800Y4059D03*
G01X6800Y3059D03*
G01X6800Y2059D03*
G54D12*
G01X6800Y1059D03*
G54D13*
G01X16600Y2559D03*
G01X16600Y5559D03*
G54D14*
G01X1100Y11559D03*
G01X1100Y10559D03*
G01X1100Y9559D03*
G01X1100Y8559D03*
G01X1100Y7559D03*
G01X1100Y6559D03*
G01X1100Y5559D03*
G01X1100Y4559D03*
G01X1100Y3559D03*
G54D15*
G01X1100Y2559D03*
G54D14*
G01X1096Y12565D03*
G54D16*
G01X12989Y959D03*
G01X13989Y959D03*
G01X11689Y959D03*
G01X8390Y959D03*
G01X9389Y959D03*
G01X10689Y959D03*
G54D14*
G01X15900Y11259D03*
G01X16900Y11259D03*
G01X17900Y11259D03*
G01X18900Y11259D03*
G01X19900Y11259D03*
G54D15*
G01X20900Y11259D03*
G54D17*
G01X18189Y5529D03*
G01X19189Y5529D03*
G54D13*
G01X11900Y8860D03*
G01X11900Y6930D03*
G54D17*
G01X13989Y8830D03*
G01X14989Y8830D03*
G01X13989Y6930D03*
G01X14989Y6930D03*
G54D18*
G01X15000Y2559D03*
G01X15000Y5559D03*
G54D19*
G01X22180Y5569D03*
G01X22180Y6359D03*
G01X22180Y7150D03*
G01X22180Y7929D03*
G54D20*
G01X11289Y12740D03*
G01X10500Y12740D03*
G01X9710Y12740D03*
G01X8930Y12740D03*
M00*
M02*
